<?xml version="1.0" encoding="UTF-8" standalone="no"?>
<svg
   xmlns:dc="http://purl.org/dc/elements/1.1/"
   xmlns:cc="http://creativecommons.org/ns#"
   xmlns:rdf="http://www.w3.org/1999/02/22-rdf-syntax-ns#"
   xmlns:svg="http://www.w3.org/2000/svg"
   xmlns="http://www.w3.org/2000/svg"
   xmlns:sodipodi="http://sodipodi.sourceforge.net/DTD/sodipodi-0.dtd"
   xmlns:inkscape="http://www.inkscape.org/namespaces/inkscape"
   width="30.038099mm"
   height="128.5381mm"
   viewBox="0 0 30.038099 128.5381"
   version="1.1"
   id="svg9829"
   inkscape:version="1.0.2 (e86c870879, 2021-01-15)"
   sodipodi:docname="shmona_front.svg">
  <defs
     id="defs9823">
    <rect
       x="46.966778"
       y="53.963547"
       width="16.341568"
       height="13.96559"
       id="rect4216-7" />
    <rect
       x="46.966778"
       y="53.963547"
       width="16.341568"
       height="13.96559"
       id="rect9672" />
    <rect
       x="46.966778"
       y="53.963547"
       width="16.341568"
       height="13.96559"
       id="rect4216-7-6" />
    <rect
       x="46.966778"
       y="53.963547"
       width="16.341568"
       height="13.96559"
       id="rect9675" />
    <rect
       x="46.966778"
       y="53.963547"
       width="16.341568"
       height="13.96559"
       id="rect4216" />
    <rect
       x="46.966778"
       y="53.963547"
       width="16.341568"
       height="13.96559"
       id="rect9678" />
    <rect
       x="46.966778"
       y="53.963547"
       width="16.341568"
       height="13.96559"
       id="rect4216-1" />
    <rect
       x="46.966778"
       y="53.963547"
       width="16.341568"
       height="13.96559"
       id="rect9681" />
    <rect
       x="37.018211"
       y="48.05275"
       width="12.084044"
       height="13.696954"
       id="rect4352" />
    <rect
       x="37.018211"
       y="48.05275"
       width="12.084044"
       height="13.696954"
       id="rect9684" />
    <rect
       x="37.018211"
       y="48.05275"
       width="12.084044"
       height="13.696954"
       id="rect4352-7" />
    <rect
       x="37.018211"
       y="48.05275"
       width="12.084044"
       height="13.696954"
       id="rect9687" />
    <rect
       x="37.018211"
       y="48.05275"
       width="12.084044"
       height="13.696954"
       id="rect4352-1" />
    <rect
       x="37.018211"
       y="48.05275"
       width="12.084044"
       height="13.696954"
       id="rect9690" />
    <rect
       x="37.018211"
       y="48.05275"
       width="12.084044"
       height="13.696954"
       id="rect4352-7-3" />
    <rect
       x="37.018211"
       y="48.05275"
       width="12.084044"
       height="13.696954"
       id="rect9693" />
    <rect
       x="37.018211"
       y="48.05275"
       width="12.084044"
       height="13.696954"
       id="rect4352-1-1" />
    <rect
       x="37.018211"
       y="48.05275"
       width="12.084044"
       height="13.696954"
       id="rect9696" />
    <rect
       x="37.018211"
       y="48.05275"
       width="12.084044"
       height="13.696954"
       id="rect4352-7-3-3" />
    <rect
       x="37.018211"
       y="48.05275"
       width="12.084044"
       height="13.696954"
       id="rect9699" />
    <rect
       x="37.018211"
       y="48.05275"
       width="12.084044"
       height="13.696954"
       id="rect4352-1-1-3" />
    <rect
       x="37.018211"
       y="48.05275"
       width="12.084044"
       height="13.696954"
       id="rect9702" />
    <rect
       x="37.018211"
       y="48.05275"
       width="12.084044"
       height="13.696954"
       id="rect4352-7-3-3-2" />
    <rect
       x="37.018211"
       y="48.05275"
       width="12.084044"
       height="13.696954"
       id="rect9705" />
    <rect
       x="37.018211"
       y="48.05275"
       width="12.084044"
       height="13.696954"
       id="rect4352-1-1-6" />
    <rect
       x="37.018211"
       y="48.05275"
       width="12.084044"
       height="13.696954"
       id="rect9708" />
    <rect
       x="37.018211"
       y="48.05275"
       width="12.084044"
       height="13.696954"
       id="rect4352-7-3-3-0" />
    <rect
       x="37.018211"
       y="48.05275"
       width="12.084044"
       height="13.696954"
       id="rect9711" />
    <rect
       x="37.018211"
       y="48.05275"
       width="12.084044"
       height="13.696954"
       id="rect4352-1-1-3-0" />
    <rect
       x="37.018211"
       y="48.05275"
       width="12.084044"
       height="13.696954"
       id="rect9714" />
    <rect
       x="37.018211"
       y="48.05275"
       width="12.084044"
       height="13.696954"
       id="rect4352-7-3-3-2-9" />
    <rect
       x="37.018211"
       y="48.05275"
       width="12.084044"
       height="13.696954"
       id="rect9717" />
    <rect
       x="46.966778"
       y="53.963547"
       width="16.341568"
       height="13.96559"
       id="rect4216-7-62" />
    <rect
       x="46.966778"
       y="53.963547"
       width="16.341568"
       height="13.96559"
       id="rect11163" />
    <rect
       x="46.966778"
       y="53.963547"
       width="16.341568"
       height="13.96559"
       id="rect4216-7-6-6" />
    <rect
       x="46.966778"
       y="53.963547"
       width="16.341568"
       height="13.96559"
       id="rect11166" />
    <rect
       x="46.966778"
       y="53.963547"
       width="16.341568"
       height="13.96559"
       id="rect4216-5" />
    <rect
       x="46.966778"
       y="53.963547"
       width="16.341568"
       height="13.96559"
       id="rect11169" />
    <rect
       x="46.966778"
       y="53.963547"
       width="16.341568"
       height="13.96559"
       id="rect4216-1-6" />
    <rect
       x="46.966778"
       y="53.963547"
       width="16.341568"
       height="13.96559"
       id="rect11172" />
    <rect
       x="37.018211"
       y="48.05275"
       width="12.084044"
       height="13.696954"
       id="rect4352-6" />
    <rect
       x="37.018211"
       y="48.05275"
       width="12.084044"
       height="13.696954"
       id="rect11175" />
    <rect
       x="37.018211"
       y="48.05275"
       width="12.084044"
       height="13.696954"
       id="rect4352-7-34" />
    <rect
       x="37.018211"
       y="48.05275"
       width="12.084044"
       height="13.696954"
       id="rect11178" />
    <rect
       x="37.018211"
       y="48.05275"
       width="12.084044"
       height="13.696954"
       id="rect4352-1-17" />
    <rect
       x="37.018211"
       y="48.05275"
       width="12.084044"
       height="13.696954"
       id="rect11181" />
    <rect
       x="37.018211"
       y="48.05275"
       width="12.084044"
       height="13.696954"
       id="rect4352-7-3-1" />
    <rect
       x="37.018211"
       y="48.05275"
       width="12.084044"
       height="13.696954"
       id="rect11184" />
    <rect
       x="37.018211"
       y="48.05275"
       width="12.084044"
       height="13.696954"
       id="rect4352-1-1-30" />
    <rect
       x="37.018211"
       y="48.05275"
       width="12.084044"
       height="13.696954"
       id="rect11187" />
    <rect
       x="37.018211"
       y="48.05275"
       width="12.084044"
       height="13.696954"
       id="rect4352-7-3-3-8" />
    <rect
       x="37.018211"
       y="48.05275"
       width="12.084044"
       height="13.696954"
       id="rect11190" />
    <rect
       x="37.018211"
       y="48.05275"
       width="12.084044"
       height="13.696954"
       id="rect4352-1-1-3-2" />
    <rect
       x="37.018211"
       y="48.05275"
       width="12.084044"
       height="13.696954"
       id="rect11193" />
    <rect
       x="37.018211"
       y="48.05275"
       width="12.084044"
       height="13.696954"
       id="rect4352-7-3-3-2-90" />
    <rect
       x="37.018211"
       y="48.05275"
       width="12.084044"
       height="13.696954"
       id="rect11196" />
    <rect
       x="37.018211"
       y="48.05275"
       width="12.084044"
       height="13.696954"
       id="rect4352-1-1-6-1" />
    <rect
       x="37.018211"
       y="48.05275"
       width="12.084044"
       height="13.696954"
       id="rect11199" />
    <rect
       x="37.018211"
       y="48.05275"
       width="12.084044"
       height="13.696954"
       id="rect4352-7-3-3-0-0" />
    <rect
       x="37.018211"
       y="48.05275"
       width="12.084044"
       height="13.696954"
       id="rect11202" />
    <rect
       x="37.018211"
       y="48.05275"
       width="12.084044"
       height="13.696954"
       id="rect4352-1-1-3-0-8" />
    <rect
       x="37.018211"
       y="48.05275"
       width="12.084044"
       height="13.696954"
       id="rect11205" />
    <rect
       x="37.018211"
       y="48.05275"
       width="12.084044"
       height="13.696954"
       id="rect4352-7-3-3-2-9-1" />
    <rect
       x="37.018211"
       y="48.05275"
       width="12.084044"
       height="13.696954"
       id="rect11208" />
  </defs>
  <sodipodi:namedview
     id="base"
     pagecolor="#ffffff"
     bordercolor="#666666"
     borderopacity="1.0"
     inkscape:pageopacity="0.0"
     inkscape:pageshadow="2"
     inkscape:zoom="1.3446953"
     inkscape:cx="67.124104"
     inkscape:cy="159.5913"
     inkscape:document-units="mm"
     inkscape:current-layer="layer1"
     inkscape:document-rotation="0"
     showgrid="false"
     fit-margin-top="0"
     fit-margin-left="0"
     fit-margin-right="0"
     fit-margin-bottom="0"
     inkscape:window-width="1078"
     inkscape:window-height="1021"
     inkscape:window-x="1836"
     inkscape:window-y="91"
     inkscape:window-maximized="0" />
  <metadata
     id="metadata9826">
    <rdf:RDF>
      <cc:Work
         rdf:about="">
        <dc:format>image/svg+xml</dc:format>
        <dc:type
           rdf:resource="http://purl.org/dc/dcmitype/StillImage" />
        <dc:title></dc:title>
      </cc:Work>
    </rdf:RDF>
  </metadata>
  <g
     inkscape:label="Layer 1"
     inkscape:groupmode="layer"
     id="layer1"
     transform="translate(-84.456255,-60.742571)">
    <path
       style="fill:#37cbcb;fill-opacity:1;fill-rule:evenodd;stroke:#37cbcb;stroke-width:0;stroke-linecap:round;stroke-linejoin:round;stroke-opacity:1"
       d="m 108.93431,186.22062 -0.0158,0.2249 -0.0566,0.2512 -0.0961,0.2388 -0.13321,0.2204 -0.16689,0.1961 -0.1961,0.1669 -0.2204,0.1332 -0.2388,0.0961 -0.2512,0.0566 -0.2249,0.0158 h -0.8 l -0.2248,-0.0158 -0.2512,-0.0566 -0.2388,-0.0961 -0.2204,-0.1332 -0.1961,-0.1669 -0.1669,-0.1961 -0.1332,-0.2204 -0.0961,-0.2388 -0.0566,-0.2512 -0.0159,-0.2249 0.0159,-0.2248 0.0566,-0.2512 0.0961,-0.2388 0.1332,-0.2204 0.1669,-0.1961 0.1961,-0.1669 0.2204,-0.1332 0.2388,-0.0961 0.2512,-0.0566 0.2248,-0.0158 h 0.8 l 0.2249,0.0158 0.2512,0.0566 0.2388,0.0961 0.2204,0.1332 0.1961,0.1669 0.16689,0.1961 0.13321,0.2204 0.0961,0.2388 0.0566,0.2512 z"
       id="path2340" />
    <path
       style="fill:#37cbcb;fill-opacity:1;fill-rule:evenodd;stroke:#37cbcb;stroke-width:0;stroke-linecap:round;stroke-linejoin:round;stroke-opacity:1"
       d="m 90.015305,63.811621 0.0159,-0.2248 0.0565,-0.2512 0.0962,-0.2389 0.1332,-0.2203 0.1668,-0.1962 0.1962,-0.1668 0.2203,-0.1332 0.2389,-0.0962 0.2512,-0.0565 0.2248,-0.0159 h 0.8 l 0.2248,0.0159 0.2512,0.0565 0.2389,0.0962 0.2203,0.1332 0.1962,0.1668 0.1668,0.1962 0.1332,0.2203 0.0962,0.2389 0.0565,0.2512 0.0159,0.2248 -0.0159,0.2248 -0.0565,0.2512 -0.0962,0.2389 -0.1332,0.2203 -0.1668,0.1962 -0.1962,0.1668 -0.2203,0.1332 -0.2389,0.0962 -0.2512,0.0565 -0.2248,0.0159 h -0.8 l -0.2248,-0.0159 -0.2512,-0.0565 -0.2389,-0.0962 -0.2203,-0.1332 -0.1962,-0.1668 -0.1668,-0.1962 -0.1332,-0.2203 -0.0962,-0.2389 -0.0565,-0.2512 z"
       id="path2358" />
    <path
       id="circle2424"
       style="fill:#37cbcb;fill-opacity:1;stroke:#37cbcb;stroke-width:0;stroke-linecap:round;stroke-linejoin:round;stroke-opacity:1"
       d="m 108.87531,74.711617 a 3.25,3.25 0 0 1 -3.25,3.25 3.25,3.25 0 0 1 -3.25,-3.25 3.25,3.25 0 0 1 3.25,-3.25 3.25,3.25 0 0 1 3.25,3.25 z" />
    <path
       id="circle2444"
       style="fill:#37cbcb;fill-opacity:1;stroke:#37cbcb;stroke-width:0;stroke-linecap:round;stroke-linejoin:round;stroke-opacity:1"
       d="m 103.4753,157.91162 a 4,4 0 0 1 -3.999996,4 4,4 0 0 1 -4,-4 4,4 0 0 1 4,-4 4,4 0 0 1 3.999996,4 z" />
    <path
       style="fill:none;fill-opacity:0;stroke:#2f2d31;stroke-width:0.0381;stroke-linecap:round;stroke-linejoin:round;stroke-opacity:1"
       d="M 84.475305,60.761621 H 114.47531 V 189.26162 H 84.475305 Z"
       id="path3570" />
    <g
       aria-label="שמונה"
       id="text2881-2"
       style="font-style:normal;font-weight:normal;font-size:7.35154px;line-height:1.25;font-family:sans-serif;fill:#000000;fill-opacity:1;stroke:none;stroke-width:0.183789">
      <path
         d="m 111.0985,63.122393 q -0.20217,-0.116399 -0.20217,-0.490102 0,-0.21442 0.0796,-0.416588 0.0858,-0.202167 0.2083,-0.202167 0.0429,0 0.0551,0.01838 0.0123,0.01838 0.006,0.06739 -0.006,0.04288 -0.006,0.07352 0.0184,0.104147 0.12253,0.122526 l 0.36145,0.06126 q 0.15928,0.0245 0.23892,0.147031 0.0858,0.116399 0.0919,0.281809 0.006,0.159283 -0.0184,0.300188 -0.0184,0.140904 -0.0551,0.257304 -0.0674,0.208293 -0.27568,0.532986 -0.20217,0.318567 -0.2573,0.416587 -0.11028,0.21442 -0.38596,0.753533 -0.26956,0.539113 -0.41046,0.802543 -0.049,0.07964 -0.0858,0.104147 -0.0368,0.01838 -0.12865,0.01838 h -1.47031 q -0.0674,0 -0.10415,-0.01838 -0.0306,-0.02451 -0.049,-0.104147 -0.0613,-0.26343 -0.13477,-0.581996 -0.0674,-0.318567 -0.0919,-0.42884 -0.0245,-0.1164 -0.0551,-0.269557 -0.0306,-0.153157 -0.0429,-0.238925 -0.0122,-0.08577 -0.0245,-0.196041 -0.049,-0.42884 0.18378,-0.845427 0.0674,-0.134778 -0.0551,-0.159283 -0.0122,0 -0.0551,0 -0.0429,-0.0061 -0.0796,-0.01225 -0.0368,-0.01225 -0.0735,-0.03676 -0.17153,-0.122525 -0.17153,-0.447218 0,-0.21442 0.0858,-0.416588 0.0858,-0.202167 0.20216,-0.202167 0.0429,0 0.0551,0.01838 0.0123,0.01838 0.006,0.06739 -0.006,0.04288 -0.006,0.07352 0.0245,0.122526 0.12253,0.128652 l 0.32469,0.03063 q 0.15316,0.01838 0.23892,0.104147 0.0858,0.07964 0.14091,0.238925 0.0306,0.09189 0.0306,0.275682 0.006,0.183789 -0.0245,0.294062 -0.0184,0.06126 -0.0735,0.05514 -0.0551,-0.01225 -0.1164,-0.03676 -0.0613,-0.03063 -0.1409,0.0245 -0.0796,0.06126 -0.13478,0.330819 -0.0551,0.26343 -0.0122,0.563618 0.12865,0.986332 0.47172,0.918943 0.0858,-0.557492 0.15928,-0.796417 0.0551,-0.196041 0.21442,-0.471724 0.15929,-0.281809 0.18992,-0.385956 0.0613,-0.196041 0.0429,-0.238925 -0.0245,-0.05514 -0.12252,-0.06739 -0.0919,-0.01838 -0.14091,-0.04288 -0.18991,-0.110273 -0.18991,-0.465597 0,-0.21442 0.0796,-0.416588 0.0858,-0.202167 0.20829,-0.202167 0.0429,0 0.0551,0.01838 0.0123,0.01838 0.006,0.06739 -0.006,0.04288 -0.006,0.07352 0.006,0.04901 0.0429,0.08577 0.0429,0.03676 0.0796,0.03676 l 0.3247,0.03063 q 0.31244,0.03063 0.38595,0.312441 0.0919,0.349198 -0.0245,0.612628 -0.0245,0.05514 -0.0674,0.04901 -0.0429,-0.01225 -0.098,-0.03676 -0.0551,-0.03063 -0.14091,0.01225 -0.0551,0.02451 -0.0919,0.140905 -0.0306,0.08577 -0.0919,0.349198 -0.0551,0.257304 -0.11027,0.404335 -0.0429,0.122525 -0.13478,0.294061 -0.0919,0.16541 -0.15315,0.312441 -0.0551,0.147031 -0.0735,0.324693 h 0.50848 q 0.15929,0 0.22667,-0.05514 0.0735,-0.05514 0.15316,-0.196041 0.42272,-0.698396 0.9312,-1.353908 0.10414,-0.128652 0,-0.257304 -0.0613,-0.07964 -0.2328,-0.07964 -0.16541,-0.0061 -0.21442,-0.03676 z"
         style="font-style:normal;font-variant:normal;font-weight:normal;font-stretch:normal;font-size:7.35154px;font-family:'Frank Ruehl CLM';-inkscape-font-specification:'Frank Ruehl CLM, Normal';font-variant-ligatures:normal;font-variant-caps:normal;font-variant-numeric:normal;font-variant-east-asian:normal;stroke-width:0.183789"
         id="path11856" />
      <path
         d="m 105.32143,65.677054 q 0.006,0.09802 -0.0368,0.171535 -0.0429,0.07352 -0.10414,0.110274 -0.0613,0.03063 -0.12865,0.04288 -0.0674,0.01838 -0.12253,0.0061 -0.049,-0.01225 -0.0613,-0.03676 -0.0184,-0.03063 -0.0184,-0.183788 0,-0.771912 0.15316,-1.298772 0.15315,-0.532987 0.48397,-0.992458 0.049,-0.06739 0.0184,-0.134779 -0.0245,-0.07352 -0.098,-0.09189 -0.0796,-0.01838 -0.18379,-0.0245 -0.098,-0.0061 -0.17153,-0.02451 -0.0735,-0.01838 -0.15316,-0.07964 -0.18379,-0.147031 -0.18379,-0.508481 0,-0.220547 0.0796,-0.416588 0.0858,-0.202167 0.2083,-0.202167 0.0429,0 0.049,0.01838 0.0123,0.01838 0.006,0.06739 -0.006,0.04288 0,0.07352 0.006,0.04901 0.0429,0.08577 0.0367,0.03676 0.0735,0.03676 h 0.12865 q 0.45335,0 0.55137,0.392082 0.0613,0.232799 -0.0123,0.502355 0.28181,-0.140904 0.42884,-0.349198 0.14703,-0.208293 0.25117,-0.496229 0.0306,-0.07964 0.0674,-0.09189 0.0429,-0.01225 0.1164,0.0061 0.30019,0.05514 0.52074,0.226673 0.22054,0.16541 0.34307,0.422713 0.12252,0.251178 0.17766,0.539113 0.0551,0.287936 0.0551,0.631008 0,0.943447 -0.22055,1.770495 -0.0184,0.07352 -0.0551,0.09802 -0.0306,0.0245 -0.10414,0.0245 h -1.51932 q -0.098,0 -0.1164,-0.03676 -0.0184,-0.04288 0.006,-0.116399 l 0.16541,-0.637133 q 0.0123,-0.04901 0.0368,-0.06126 0.0245,-0.01838 0.0919,-0.01838 h 1.02309 q 0.0858,0 0.13478,-0.03063 0.0551,-0.03063 0.11639,-0.122525 0.0735,-0.110273 0.098,-0.37983 0.0245,-0.275683 -0.0429,-0.606502 -0.0796,-0.318567 -0.30631,-0.508481 -0.22668,-0.196041 -0.55137,-0.196041 -0.58812,0 -0.94345,0.661638 -0.35532,0.655512 -0.29406,1.758244 z"
         style="font-style:normal;font-variant:normal;font-weight:normal;font-stretch:normal;font-size:7.35154px;font-family:'Frank Ruehl CLM';-inkscape-font-specification:'Frank Ruehl CLM, Normal';font-variant-ligatures:normal;font-variant-caps:normal;font-variant-numeric:normal;font-variant-east-asian:normal;stroke-width:0.183789"
         id="path11858" />
      <path
         d="m 103.05471,62.295345 h 0.3247 q 0.40433,0 0.53911,0.208294 0.1409,0.202167 0.1409,0.600375 0,0.257304 0.006,0.784165 0.006,0.52686 0,0.90669 0,0.379829 -0.0123,0.74128 -0.006,0.220546 -0.1164,0.349198 -0.11028,0.122526 -0.22055,0.122526 -0.0306,0 -0.0551,-0.02451 -0.0184,-0.01838 -0.0184,-0.04901 0,-0.422713 0,-1.182372 0,-0.765786 0,-1.004711 0,-0.140904 -0.006,-0.208293 0,-0.06739 -0.0306,-0.153157 -0.0245,-0.08577 -0.0796,-0.122526 -0.049,-0.04288 -0.14703,-0.06739 -0.098,-0.03063 -0.24506,-0.03063 h -0.0306 q -0.26343,0 -0.39208,-0.128652 -0.12253,-0.134778 -0.12253,-0.410461 0,-0.220546 0.0858,-0.416587 0.0858,-0.196041 0.20217,-0.196041 0.049,0 0.0551,0.01838 0.0122,0.01838 0.006,0.07352 -0.006,0.04901 -0.006,0.07352 0.0122,0.04901 0.049,0.08577 0.0367,0.03063 0.0735,0.03063 z"
         style="font-style:normal;font-variant:normal;font-weight:normal;font-stretch:normal;font-size:7.35154px;font-family:'Frank Ruehl CLM';-inkscape-font-specification:'Frank Ruehl CLM, Normal';font-variant-ligatures:normal;font-variant-caps:normal;font-variant-numeric:normal;font-variant-east-asian:normal;stroke-width:0.183789"
         id="path11860" />
      <path
         d="m 101.13107,62.295345 h 0.41046 q 0.49623,0 0.50848,0.563618 0,0.09189 -0.049,0.410461 -0.0858,0.532987 -0.0858,0.784164 0,0.238925 0.0919,0.624881 0.098,0.37983 0.11027,0.526861 0.0245,0.355324 -0.0674,0.637133 -0.0184,0.04901 -0.0306,0.07352 -0.0122,0.01838 -0.0551,0.03676 -0.0429,0.01838 -0.1164,0.01838 h -1.46418 q -0.098,0 -0.1164,-0.03676 -0.0184,-0.04288 0.006,-0.116399 l 0.16541,-0.637133 q 0.0122,-0.04901 0.0368,-0.06126 0.0245,-0.01838 0.0919,-0.01838 h 0.75966 q 0.17767,0 0.22668,-0.208294 0.0184,-0.08577 0.0184,-0.21442 0,-0.128652 -0.0122,-0.31244 -0.006,-0.189915 -0.006,-0.300188 0,-0.238925 0.0245,-0.441092 0.0245,-0.208294 0.0123,-0.281809 -0.0245,-0.177663 -0.25117,-0.177663 h -0.15929 q -0.26343,0 -0.39208,-0.128652 -0.12253,-0.128652 -0.12253,-0.404334 0,-0.21442 0.0797,-0.416588 0.0858,-0.202167 0.20829,-0.202167 0.0429,0 0.049,0.01838 0.0122,0.01838 0.006,0.06739 -0.006,0.04288 0,0.07352 0.006,0.04901 0.0429,0.08577 0.0368,0.03676 0.0796,0.03676 z"
         style="font-style:normal;font-variant:normal;font-weight:normal;font-stretch:normal;font-size:7.35154px;font-family:'Frank Ruehl CLM';-inkscape-font-specification:'Frank Ruehl CLM, Normal';font-variant-ligatures:normal;font-variant-caps:normal;font-variant-numeric:normal;font-variant-east-asian:normal;stroke-width:0.183789"
         id="path11862" />
      <path
         d="m 97.338904,62.295345 h 2.205462 q 0.189915,0 0.196042,0.245051 v 0.514608 q 0,0.08577 -0.01838,0.1164 -0.01225,0.03063 -0.03676,0.03063 -0.01838,-0.0061 -0.06126,0.03063 -0.03676,0.03063 -0.07352,0.1164 -0.06126,0.110273 -0.05514,0.398208 0.0061,0.287936 0.04288,0.551366 0.03676,0.257304 0.07352,0.563618 0.03676,0.306314 0.03063,0.453345 -0.01838,0.349198 -0.189915,0.520734 -0.09802,0.09802 -0.232799,0.134778 -0.134778,0.04288 -0.171535,-0.0245 -0.01225,-0.02451 -0.01838,-0.03676 0,-0.01225 0.0061,-0.02451 0.0061,-0.01838 0.01838,-0.06739 0.01225,-0.05514 0.01838,-0.134778 0.01225,-0.07964 0.01838,-0.251178 0.0061,-0.171536 0.01225,-0.392082 0,-0.04288 -0.01838,-0.251178 -0.01225,-0.21442 -0.01838,-0.441092 0,-0.226672 0.03063,-0.716775 0.0061,-0.110273 0.04288,-0.189915 0.03676,-0.07964 0.07352,-0.116399 0.04288,-0.03676 0.07352,-0.06126 0.03063,-0.03063 0.03063,-0.04901 -0.0061,-0.02451 -0.02451,-0.03676 -0.01225,-0.01225 -0.02451,-0.01225 -0.01225,-0.0061 -0.04288,0 -0.03063,0 -0.03676,0 h -1.795001 q -0.269556,0 -0.398208,-0.128652 -0.122526,-0.134778 -0.122526,-0.410461 0,-0.220546 0.08577,-0.416587 0.08577,-0.196041 0.202167,-0.196041 0.04901,0 0.05514,0.01838 0.01225,0.01838 0.0061,0.07352 -0.0061,0.04901 0,0.07352 0.0061,0.04901 0.04288,0.08577 0.03676,0.03063 0.07352,0.03063 z m 0.140905,1.678602 q 0.06739,0 0.05514,0.06126 -0.05514,0.177662 -0.03676,0.888311 0.02451,0.704522 -0.07964,0.814795 -0.07352,0.1164 -0.232799,0.183789 -0.153157,0.06739 -0.226672,0.06126 -0.06739,-0.0061 -0.04901,-0.07352 0.04901,-0.183788 0.04288,-0.747406 0,-0.03063 0,-0.09802 0,-0.196041 0,-0.367577 0,-0.171536 0.0245,-0.318567 0.02451,-0.14703 0.07964,-0.214419 0.140905,-0.189915 0.422714,-0.189915 z"
         style="font-style:normal;font-variant:normal;font-weight:normal;font-stretch:normal;font-size:7.35154px;font-family:'Frank Ruehl CLM';-inkscape-font-specification:'Frank Ruehl CLM, Normal';font-variant-ligatures:normal;font-variant-caps:normal;font-variant-numeric:normal;font-variant-east-asian:normal;stroke-width:0.183789"
         id="path11864" />
    </g>
    <path
       style="fill:none;stroke:#000000;stroke-width:0.264582px;stroke-linecap:butt;stroke-linejoin:miter;stroke-opacity:1"
       d="m 114.48107,67.763912 h -29.992"
       id="path2883-2" />
    <g
       aria-label="שמונה"
       transform="scale(-1)"
       id="text2881-2-5"
       style="font-style:normal;font-weight:normal;font-size:7.35154px;line-height:1.25;font-family:sans-serif;fill:#000000;fill-opacity:1;stroke:none;stroke-width:0.183789">
      <path
         d="m -87.858861,-186.85934 q -0.202167,-0.1164 -0.202167,-0.4901 0,-0.21442 0.07964,-0.41659 0.08577,-0.20217 0.208294,-0.20217 0.04288,0 0.05514,0.0184 0.01225,0.0184 0.0061,0.0674 -0.0061,0.0429 -0.0061,0.0735 0.01838,0.10415 0.122526,0.12253 l 0.361451,0.0613 q 0.159283,0.0245 0.238925,0.14703 0.08577,0.1164 0.09189,0.28181 0.0061,0.15929 -0.01838,0.30019 -0.01838,0.1409 -0.05514,0.2573 -0.06739,0.2083 -0.275683,0.53299 -0.202167,0.31857 -0.257304,0.41659 -0.110273,0.21442 -0.385956,0.75353 -0.269556,0.53911 -0.410461,0.80254 -0.04901,0.0796 -0.08577,0.10415 -0.03676,0.0184 -0.128652,0.0184 h -1.470308 q -0.06739,0 -0.104147,-0.0184 -0.03063,-0.0245 -0.04901,-0.10415 -0.06126,-0.26343 -0.134778,-0.58199 -0.06739,-0.31857 -0.09189,-0.42884 -0.02451,-0.1164 -0.05514,-0.26956 -0.03063,-0.15316 -0.04288,-0.23892 -0.01225,-0.0858 -0.0245,-0.19605 -0.04901,-0.42883 0.183789,-0.84542 0.06739,-0.13478 -0.05514,-0.15929 -0.01225,0 -0.05514,0 -0.04288,-0.006 -0.07964,-0.0122 -0.03676,-0.0123 -0.07352,-0.0368 -0.171536,-0.12252 -0.171536,-0.44721 0,-0.21442 0.08577,-0.41659 0.08577,-0.20217 0.202168,-0.20217 0.04288,0 0.05514,0.0184 0.01225,0.0184 0.0061,0.0674 -0.0061,0.0429 -0.0061,0.0735 0.02451,0.12253 0.122526,0.12866 l 0.324693,0.0306 q 0.153157,0.0184 0.238925,0.10414 0.08577,0.0797 0.140905,0.23893 0.03063,0.0919 0.03063,0.27568 0.0061,0.18379 -0.02451,0.29406 -0.01838,0.0613 -0.07352,0.0551 -0.05514,-0.0122 -0.116399,-0.0368 -0.06126,-0.0306 -0.140904,0.0245 -0.07964,0.0613 -0.134779,0.33082 -0.05514,0.26343 -0.01225,0.56362 0.128652,0.98633 0.471724,0.91894 0.08577,-0.55749 0.159283,-0.79642 0.05514,-0.19604 0.21442,-0.47172 0.159283,-0.28181 0.189915,-0.38596 0.06126,-0.19604 0.04288,-0.23892 -0.02451,-0.0551 -0.122526,-0.0674 -0.09189,-0.0184 -0.140905,-0.0429 -0.189914,-0.11027 -0.189914,-0.46559 0,-0.21442 0.07964,-0.41659 0.08577,-0.20217 0.208294,-0.20217 0.04288,0 0.05514,0.0184 0.01225,0.0184 0.0061,0.0674 -0.0061,0.0429 -0.0061,0.0735 0.0061,0.049 0.04288,0.0858 0.04288,0.0368 0.07964,0.0368 l 0.324693,0.0306 q 0.312441,0.0306 0.385956,0.31244 0.09189,0.3492 -0.02451,0.61263 -0.0245,0.0551 -0.06739,0.049 -0.04288,-0.0122 -0.09802,-0.0368 -0.05514,-0.0306 -0.140904,0.0123 -0.05514,0.0245 -0.09189,0.1409 -0.03063,0.0858 -0.09189,0.3492 -0.05514,0.2573 -0.110273,0.40433 -0.04288,0.12253 -0.134778,0.29406 -0.09189,0.16541 -0.153157,0.31244 -0.05514,0.14704 -0.07352,0.3247 h 0.508482 q 0.159283,0 0.226672,-0.0551 0.07352,-0.0551 0.153157,-0.19604 0.422714,-0.6984 0.931196,-1.35391 0.104146,-0.12865 0,-0.2573 -0.06126,-0.0796 -0.232799,-0.0796 -0.16541,-0.006 -0.21442,-0.0368 z"
         style="font-style:normal;font-variant:normal;font-weight:normal;font-stretch:normal;font-size:7.35154px;font-family:'Frank Ruehl CLM';-inkscape-font-specification:'Frank Ruehl CLM, Normal';font-variant-ligatures:normal;font-variant-caps:normal;font-variant-numeric:normal;font-variant-east-asian:normal;stroke-width:0.183789"
         id="path11867" />
      <path
         d="m -93.635927,-184.30468 q 0.0061,0.098 -0.03676,0.17153 -0.04288,0.0735 -0.104147,0.11028 -0.06126,0.0306 -0.128652,0.0429 -0.06739,0.0184 -0.122526,0.006 -0.04901,-0.0122 -0.06126,-0.0368 -0.01838,-0.0306 -0.01838,-0.18379 0,-0.77191 0.153157,-1.29877 0.153158,-0.53299 0.483977,-0.99246 0.04901,-0.0674 0.01838,-0.13478 -0.0245,-0.0735 -0.09802,-0.0919 -0.07964,-0.0184 -0.183788,-0.0245 -0.09802,-0.006 -0.171536,-0.0245 -0.07352,-0.0184 -0.153157,-0.0796 -0.183789,-0.14703 -0.183789,-0.50848 0,-0.22055 0.07964,-0.41659 0.08577,-0.20217 0.208293,-0.20217 0.04288,0 0.04901,0.0184 0.01225,0.0184 0.0061,0.0674 -0.0061,0.0429 0,0.0735 0.0061,0.049 0.04288,0.0858 0.03676,0.0368 0.07352,0.0368 h 0.128652 q 0.453345,0 0.551366,0.39208 0.06126,0.2328 -0.01225,0.50236 0.281809,-0.14091 0.42884,-0.3492 0.147031,-0.20829 0.251178,-0.49623 0.03063,-0.0796 0.06739,-0.0919 0.04288,-0.0123 0.116399,0.006 0.300188,0.0551 0.520734,0.22667 0.220547,0.16541 0.343072,0.42272 0.122526,0.25118 0.177662,0.53911 0.05514,0.28794 0.05514,0.63101 0,0.94345 -0.220546,1.77049 -0.01838,0.0735 -0.05514,0.098 -0.03063,0.0245 -0.104147,0.0245 h -1.519318 q -0.09802,0 -0.116399,-0.0368 -0.01838,-0.0429 0.0061,-0.1164 l 0.16541,-0.63713 q 0.01225,-0.049 0.03676,-0.0613 0.02451,-0.0184 0.09189,-0.0184 h 1.023089 q 0.08577,0 0.134778,-0.0306 0.05514,-0.0306 0.1164,-0.12253 0.07352,-0.11027 0.09802,-0.37983 0.02451,-0.27568 -0.04288,-0.6065 -0.07964,-0.31857 -0.306314,-0.50848 -0.226673,-0.19604 -0.551366,-0.19604 -0.588123,0 -0.943447,0.66163 -0.355325,0.65552 -0.294062,1.75825 z"
         style="font-style:normal;font-variant:normal;font-weight:normal;font-stretch:normal;font-size:7.35154px;font-family:'Frank Ruehl CLM';-inkscape-font-specification:'Frank Ruehl CLM, Normal';font-variant-ligatures:normal;font-variant-caps:normal;font-variant-numeric:normal;font-variant-east-asian:normal;stroke-width:0.183789"
         id="path11869" />
      <path
         d="m -95.902647,-187.68639 h 0.324693 q 0.404334,0 0.539113,0.20829 0.140904,0.20217 0.140904,0.60038 0,0.2573 0.0061,0.78416 0.0061,0.52686 0,0.90669 0,0.37983 -0.01225,0.74128 -0.0061,0.22055 -0.116399,0.3492 -0.110274,0.12253 -0.220547,0.12253 -0.03063,0 -0.05514,-0.0245 -0.01838,-0.0184 -0.01838,-0.049 0,-0.42271 0,-1.18237 0,-0.76579 0,-1.00471 0,-0.14091 -0.0061,-0.20829 0,-0.0674 -0.03063,-0.15316 -0.02451,-0.0858 -0.07964,-0.12253 -0.04901,-0.0429 -0.147031,-0.0674 -0.09802,-0.0306 -0.245052,-0.0306 h -0.03063 q -0.26343,0 -0.392082,-0.12865 -0.122526,-0.13478 -0.122526,-0.41046 0,-0.22055 0.08577,-0.41659 0.08577,-0.19604 0.202167,-0.19604 0.04901,0 0.05514,0.0184 0.01225,0.0184 0.0061,0.0735 -0.0061,0.049 -0.0061,0.0735 0.01225,0.049 0.04901,0.0858 0.03676,0.0306 0.07352,0.0306 z"
         style="font-style:normal;font-variant:normal;font-weight:normal;font-stretch:normal;font-size:7.35154px;font-family:'Frank Ruehl CLM';-inkscape-font-specification:'Frank Ruehl CLM, Normal';font-variant-ligatures:normal;font-variant-caps:normal;font-variant-numeric:normal;font-variant-east-asian:normal;stroke-width:0.183789"
         id="path11871" />
      <path
         d="m -97.826287,-187.68639 h 0.410461 q 0.496229,0 0.508481,0.56362 0,0.0919 -0.04901,0.41046 -0.08577,0.53299 -0.08577,0.78416 0,0.23893 0.09189,0.62488 0.09802,0.37983 0.110273,0.52686 0.02451,0.35533 -0.06739,0.63714 -0.01838,0.049 -0.03063,0.0735 -0.01225,0.0184 -0.05514,0.0368 -0.04288,0.0184 -0.116399,0.0184 h -1.464182 q -0.09802,0 -0.116399,-0.0368 -0.01838,-0.0429 0.0061,-0.1164 l 0.16541,-0.63713 q 0.01225,-0.049 0.03676,-0.0613 0.02451,-0.0184 0.0919,-0.0184 h 0.759659 q 0.177662,0 0.226672,-0.2083 0.01838,-0.0858 0.01838,-0.21442 0,-0.12865 -0.01225,-0.31244 -0.0061,-0.18991 -0.0061,-0.30018 0,-0.23893 0.02451,-0.4411 0.02451,-0.20829 0.01225,-0.28181 -0.02451,-0.17766 -0.251178,-0.17766 h -0.159283 q -0.26343,0 -0.392082,-0.12865 -0.122526,-0.12865 -0.122526,-0.40433 0,-0.21442 0.07964,-0.41659 0.08577,-0.20217 0.208294,-0.20217 0.04288,0 0.04901,0.0184 0.01225,0.0184 0.0061,0.0674 -0.0061,0.0429 0,0.0735 0.0061,0.049 0.04288,0.0858 0.03676,0.0368 0.07964,0.0368 z"
         style="font-style:normal;font-variant:normal;font-weight:normal;font-stretch:normal;font-size:7.35154px;font-family:'Frank Ruehl CLM';-inkscape-font-specification:'Frank Ruehl CLM, Normal';font-variant-ligatures:normal;font-variant-caps:normal;font-variant-numeric:normal;font-variant-east-asian:normal;stroke-width:0.183789"
         id="path11873" />
      <path
         d="m -101.61845,-187.68639 h 2.205457 q 0.189915,0 0.196041,0.24505 v 0.51461 q 0,0.0858 -0.01838,0.1164 -0.01225,0.0306 -0.03676,0.0306 -0.01838,-0.006 -0.06126,0.0306 -0.03676,0.0306 -0.07352,0.1164 -0.06126,0.11027 -0.05514,0.39821 0.0061,0.28793 0.04288,0.55136 0.03676,0.25731 0.07352,0.56362 0.03676,0.30632 0.03063,0.45335 -0.01838,0.3492 -0.189915,0.52073 -0.09802,0.098 -0.232799,0.13478 -0.134778,0.0429 -0.171536,-0.0245 -0.01225,-0.0245 -0.01838,-0.0367 0,-0.0123 0.0061,-0.0245 0.0061,-0.0184 0.01838,-0.0674 0.01225,-0.0551 0.01838,-0.13478 0.01225,-0.0796 0.01838,-0.25117 0.0061,-0.17154 0.01225,-0.39209 0,-0.0429 -0.01838,-0.25117 -0.01225,-0.21442 -0.01838,-0.4411 0,-0.22667 0.03063,-0.71677 0.0061,-0.11027 0.04288,-0.18992 0.03676,-0.0796 0.07352,-0.11639 0.04288,-0.0368 0.07352,-0.0613 0.03063,-0.0306 0.03063,-0.049 -0.0061,-0.0245 -0.02451,-0.0368 -0.01225,-0.0122 -0.02451,-0.0122 -0.01225,-0.006 -0.04288,0 -0.03063,0 -0.03676,0 h -1.795003 q -0.26955,0 -0.39821,-0.12865 -0.12252,-0.13478 -0.12252,-0.41046 0,-0.22055 0.0858,-0.41659 0.0858,-0.19604 0.20216,-0.19604 0.049,0 0.0551,0.0184 0.0122,0.0184 0.006,0.0735 -0.006,0.049 0,0.0735 0.006,0.049 0.0429,0.0858 0.0368,0.0306 0.0735,0.0306 z m 0.1409,1.6786 q 0.0674,0 0.0551,0.0613 -0.0551,0.17767 -0.0368,0.88832 0.0245,0.70452 -0.0796,0.81479 -0.0735,0.1164 -0.2328,0.18379 -0.15316,0.0674 -0.22667,0.0613 -0.0674,-0.006 -0.049,-0.0735 0.049,-0.18379 0.0429,-0.74741 0,-0.0306 0,-0.098 0,-0.19604 0,-0.36758 0,-0.17153 0.0245,-0.31856 0.0245,-0.14703 0.0797,-0.21442 0.1409,-0.18992 0.42271,-0.18992 z"
         style="font-style:normal;font-variant:normal;font-weight:normal;font-stretch:normal;font-size:7.35154px;font-family:'Frank Ruehl CLM';-inkscape-font-specification:'Frank Ruehl CLM, Normal';font-variant-ligatures:normal;font-variant-caps:normal;font-variant-numeric:normal;font-variant-east-asian:normal;stroke-width:0.183789"
         id="path11875" />
    </g>
    <path
       style="fill:none;stroke:#000000;stroke-width:0.264582px;stroke-linecap:butt;stroke-linejoin:miter;stroke-opacity:1"
       d="m 84.4763,182.21783 h 29.992"
       id="path2883-2-5" />
    <g
       aria-label="א"
       transform="matrix(0.62920573,0,0,0.62920573,56.618055,34.434949)"
       id="text4214-7"
       style="font-style:normal;font-weight:normal;font-size:10.5833px;line-height:1.25;font-family:sans-serif;white-space:pre;shape-inside:url(#rect4216-7-62);fill:#000000;fill-opacity:1;stroke:none">
      <path
         d="m 51.955858,59.271536 q 0,0.301829 -0.04439,0.479376 -0.04439,0.168669 -0.124283,0.213056 -0.0799,0.03551 -0.186424,-0.0089 -0.310707,-0.13316 -0.603659,0.523763 -0.13316,0.301829 -0.150914,0.621413 -0.0089,0.319584 0.150914,0.559272 l 0.710187,0.852224 q 0.159792,0.186424 0.213056,0.43499 0.05326,0.248565 0.0089,0.443866 -0.03551,0.213056 -0.213056,0.390603 -0.177546,0.168669 -0.346216,0.124283 -0.07102,-0.01776 -0.08877,-0.06214 -0.01775,-0.04439 -0.01775,-0.09765 0.0089,-0.05326 -0.0089,-0.13316 -0.01775,-0.0799 -0.0799,-0.159792 l -2.157192,-2.601059 q -0.390603,0.26632 -0.408357,0.594781 -0.0089,0.213056 0.09765,0.461622 0.115406,0.239688 0.248566,0.434989 0.142037,0.186424 0.257442,0.461621 0.124283,0.275198 0.124283,0.53264 0,0.479376 -0.292952,0.479376 h -1.429251 q -0.159792,0 -0.177546,-0.186424 -0.01776,-0.186424 0.07102,-0.292952 0.04439,-0.07102 0.186424,-0.08877 0.150915,-0.01776 0.16867,-0.05326 0.04439,-0.09765 0.01775,-0.239688 -0.01775,-0.150915 -0.0799,-0.310707 -0.05326,-0.168669 -0.0799,-0.39948 -0.02663,-0.239688 0.0089,-0.523762 0.06214,-0.390603 0.292952,-0.70131 0.23081,-0.310706 0.621413,-0.621413 L 47.961058,59.59112 q -0.159792,-0.195302 -0.23081,-0.408358 -0.06214,-0.221933 -0.04439,-0.39948 0.01775,-0.186424 0.0799,-0.337338 0.07102,-0.150915 0.168669,-0.239688 0.106528,-0.08877 0.204179,-0.08877 0.115405,0 0.142037,0.06214 0.03551,0.05326 0.07102,0.195301 0.03551,0.142037 0.13316,0.257443 l 1.873117,2.254842 q 0.08877,-0.621413 0.488254,-1.074157 -0.195302,-0.05326 -0.30183,-0.08877 -0.09765,-0.04439 -0.213056,-0.13316 -0.115405,-0.08877 -0.168669,-0.239688 -0.04439,-0.150915 -0.04439,-0.381726 0,-0.319584 0.124283,-0.603658 0.124283,-0.284075 0.301829,-0.284075 0.06214,0 0.07102,0.02663 0.01776,0.02663 0.0089,0.106528 -0.0089,0.07102 0,0.106528 0.01776,0.13316 0.221934,0.168669 l 0.292952,0.05326 q 0.452744,0.07102 0.63029,0.221934 0.186424,0.142037 0.186424,0.506008 z"
         style="font-style:normal;font-variant:normal;font-weight:normal;font-stretch:normal;font-size:10.6528px;font-family:'Frank Ruehl CLM';-inkscape-font-specification:'Frank Ruehl CLM, Normal';font-variant-ligatures:normal;font-variant-caps:normal;font-variant-numeric:normal;font-variant-east-asian:normal"
         id="path11878" />
    </g>
    <g
       aria-label="א"
       transform="matrix(-0.62920573,0,0,-0.62920573,119.15495,114.98829)"
       id="text4214-7-8"
       style="font-style:normal;font-weight:normal;font-size:10.5833px;line-height:1.25;font-family:sans-serif;white-space:pre;shape-inside:url(#rect4216-7-6-6);fill:#000000;fill-opacity:1;stroke:none">
      <path
         d="m 51.955858,59.271536 q 0,0.301829 -0.04439,0.479376 -0.04439,0.168669 -0.124283,0.213056 -0.0799,0.03551 -0.186424,-0.0089 -0.310707,-0.13316 -0.603659,0.523763 -0.13316,0.301829 -0.150914,0.621413 -0.0089,0.319584 0.150914,0.559272 l 0.710187,0.852224 q 0.159792,0.186424 0.213056,0.43499 0.05326,0.248565 0.0089,0.443866 -0.03551,0.213056 -0.213056,0.390603 -0.177546,0.168669 -0.346216,0.124283 -0.07102,-0.01776 -0.08877,-0.06214 -0.01775,-0.04439 -0.01775,-0.09765 0.0089,-0.05326 -0.0089,-0.13316 -0.01775,-0.0799 -0.0799,-0.159792 l -2.157192,-2.601059 q -0.390603,0.26632 -0.408357,0.594781 -0.0089,0.213056 0.09765,0.461622 0.115406,0.239688 0.248566,0.434989 0.142037,0.186424 0.257442,0.461621 0.124283,0.275198 0.124283,0.53264 0,0.479376 -0.292952,0.479376 h -1.429251 q -0.159792,0 -0.177546,-0.186424 -0.01776,-0.186424 0.07102,-0.292952 0.04439,-0.07102 0.186424,-0.08877 0.150915,-0.01776 0.16867,-0.05326 0.04439,-0.09765 0.01775,-0.239688 -0.01775,-0.150915 -0.0799,-0.310707 -0.05326,-0.168669 -0.0799,-0.39948 -0.02663,-0.239688 0.0089,-0.523762 0.06214,-0.390603 0.292952,-0.70131 0.23081,-0.310706 0.621413,-0.621413 L 47.961058,59.59112 q -0.159792,-0.195302 -0.23081,-0.408358 -0.06214,-0.221933 -0.04439,-0.39948 0.01775,-0.186424 0.0799,-0.337338 0.07102,-0.150915 0.168669,-0.239688 0.106528,-0.08877 0.204179,-0.08877 0.115405,0 0.142037,0.06214 0.03551,0.05326 0.07102,0.195301 0.03551,0.142037 0.13316,0.257443 l 1.873117,2.254842 q 0.08877,-0.621413 0.488254,-1.074157 -0.195302,-0.05326 -0.30183,-0.08877 -0.09765,-0.04439 -0.213056,-0.13316 -0.115405,-0.08877 -0.168669,-0.239688 -0.04439,-0.150915 -0.04439,-0.381726 0,-0.319584 0.124283,-0.603658 0.124283,-0.284075 0.301829,-0.284075 0.06214,0 0.07102,0.02663 0.01776,0.02663 0.0089,0.106528 -0.0089,0.07102 0,0.106528 0.01776,0.13316 0.221934,0.168669 l 0.292952,0.05326 q 0.452744,0.07102 0.63029,0.221934 0.186424,0.142037 0.186424,0.506008 z"
         style="font-style:normal;font-variant:normal;font-weight:normal;font-stretch:normal;font-size:10.6528px;font-family:'Frank Ruehl CLM';-inkscape-font-specification:'Frank Ruehl CLM, Normal';font-variant-ligatures:normal;font-variant-caps:normal;font-variant-numeric:normal;font-variant-east-asian:normal"
         id="path11881" />
    </g>
    <g
       aria-label="ב"
       transform="matrix(0.62920573,0,0,0.62920573,80.604208,34.434949)"
       id="text4214"
       style="font-style:normal;font-weight:normal;font-size:10.5833px;line-height:1.25;font-family:sans-serif;white-space:pre;shape-inside:url(#rect4216-5);fill:#000000;fill-opacity:1;stroke:none">
      <path
         d="m 48.067586,58.49033 h 1.953013 q 0.150915,0 0.346216,0.08877 0.195302,0.0799 0.310707,0.26632 0.284075,0.514885 0.284075,1.615674 0,1.029771 -0.452744,1.9974 -0.0089,0.02663 0,0.06214 0.0089,0.03551 0.04439,0.03551 h 0.639168 q 0.13316,0 0.159792,0.05326 0.03551,0.05326 0,0.159792 l -0.239688,0.869979 q -0.02663,0.106528 -0.07102,0.142037 -0.04439,0.03551 -0.177547,0.03551 H 47.45505 q -0.13316,0 -0.168669,-0.05326 -0.02663,-0.06214 0.0089,-0.168669 l 0.239688,-0.923243 q 0.01776,-0.07102 0.05326,-0.08877 0.03551,-0.02663 0.13316,-0.02663 h 1.979645 q 0.284075,0 0.355094,-0.07102 0.124282,-0.124282 0.204178,-0.49713 0.0799,-0.372848 0.0799,-0.816715 0,-0.727941 -0.195301,-1.06528 -0.221933,-0.355093 -0.754573,-0.355093 h -1.251704 q -0.381726,0 -0.56815,-0.186424 -0.177546,-0.186424 -0.177546,-0.585904 0,-0.310707 0.115405,-0.603659 0.124283,-0.292952 0.301829,-0.292952 0.06214,0 0.07102,0.02663 0.01775,0.02663 0.0089,0.09765 -0.0089,0.06214 0,0.106528 0.0089,0.07102 0.06214,0.124282 0.05326,0.05326 0.115405,0.05326 z"
         style="font-style:normal;font-variant:normal;font-weight:normal;font-stretch:normal;font-size:10.6528px;font-family:'Frank Ruehl CLM';-inkscape-font-specification:'Frank Ruehl CLM, Normal';font-variant-ligatures:normal;font-variant-caps:normal;font-variant-numeric:normal;font-variant-east-asian:normal"
         id="path11884" />
    </g>
    <g
       aria-label="ב"
       transform="matrix(-0.62920573,0,0,-0.62920573,142.67216,114.98829)"
       id="text4214-2"
       style="font-style:normal;font-weight:normal;font-size:10.5833px;line-height:1.25;font-family:sans-serif;white-space:pre;shape-inside:url(#rect4216-1-6);fill:#000000;fill-opacity:1;stroke:none">
      <path
         d="m 48.067586,58.49033 h 1.953013 q 0.150915,0 0.346216,0.08877 0.195302,0.0799 0.310707,0.26632 0.284075,0.514885 0.284075,1.615674 0,1.029771 -0.452744,1.9974 -0.0089,0.02663 0,0.06214 0.0089,0.03551 0.04439,0.03551 h 0.639168 q 0.13316,0 0.159792,0.05326 0.03551,0.05326 0,0.159792 l -0.239688,0.869979 q -0.02663,0.106528 -0.07102,0.142037 -0.04439,0.03551 -0.177547,0.03551 H 47.45505 q -0.13316,0 -0.168669,-0.05326 -0.02663,-0.06214 0.0089,-0.168669 l 0.239688,-0.923243 q 0.01776,-0.07102 0.05326,-0.08877 0.03551,-0.02663 0.13316,-0.02663 h 1.979645 q 0.284075,0 0.355094,-0.07102 0.124282,-0.124282 0.204178,-0.49713 0.0799,-0.372848 0.0799,-0.816715 0,-0.727941 -0.195301,-1.06528 -0.221933,-0.355093 -0.754573,-0.355093 h -1.251704 q -0.381726,0 -0.56815,-0.186424 -0.177546,-0.186424 -0.177546,-0.585904 0,-0.310707 0.115405,-0.603659 0.124283,-0.292952 0.301829,-0.292952 0.06214,0 0.07102,0.02663 0.01775,0.02663 0.0089,0.09765 -0.0089,0.06214 0,0.106528 0.0089,0.07102 0.06214,0.124282 0.05326,0.05326 0.115405,0.05326 z"
         style="font-style:normal;font-variant:normal;font-weight:normal;font-stretch:normal;font-size:10.6528px;font-family:'Frank Ruehl CLM';-inkscape-font-specification:'Frank Ruehl CLM, Normal';font-variant-ligatures:normal;font-variant-caps:normal;font-variant-numeric:normal;font-variant-east-asian:normal"
         id="path11887" />
    </g>
    <g
       aria-label="1"
       transform="translate(49.628317,29.919182)"
       id="text4350"
       style="font-style:normal;font-variant:normal;font-weight:normal;font-stretch:normal;font-size:6.70278px;line-height:1.25;font-family:'David CLM';-inkscape-font-specification:'David CLM, Normal';font-variant-ligatures:normal;font-variant-caps:normal;font-variant-numeric:normal;font-variant-east-asian:normal;white-space:pre;shape-inside:url(#rect4352-6);fill:#000000;fill-opacity:1;stroke:none">
      <path
         d="m 38.541872,50.664469 c -0.414808,0.134937 -0.714669,0.309856 -1.099491,0.574734 0.169921,0.119944 0.294864,0.159925 0.469782,0.27987 0.169922,0.114947 0.214901,0.2149 0.214901,0.394817 v 1.794168 h -0.564738 c -0.114947,0.149931 -0.219898,0.339843 -0.269875,0.544748 h 1.614251 c 0.154929,-0.164924 0.244887,-0.329847 0.309857,-0.544748 h -0.674687 z"
         style="font-style:normal;font-variant:normal;font-weight:normal;font-stretch:normal;font-size:5.99722px;font-family:'David CLM';-inkscape-font-specification:'David CLM, Normal';font-variant-ligatures:normal;font-variant-caps:normal;font-variant-numeric:normal;font-variant-east-asian:normal"
         id="path11890" />
    </g>
    <g
       aria-label="1"
       transform="rotate(180,63.068669,69.35203)"
       id="text4350-5"
       style="font-style:normal;font-variant:normal;font-weight:normal;font-stretch:normal;font-size:6.70278px;line-height:1.25;font-family:'David CLM';-inkscape-font-specification:'David CLM, Normal';font-variant-ligatures:normal;font-variant-caps:normal;font-variant-numeric:normal;font-variant-east-asian:normal;white-space:pre;shape-inside:url(#rect4352-7-34);fill:#000000;fill-opacity:1;stroke:none">
      <path
         d="m 38.541872,50.664469 c -0.414808,0.134937 -0.714669,0.309856 -1.099491,0.574734 0.169921,0.119944 0.294864,0.159925 0.469782,0.27987 0.169922,0.114947 0.214901,0.2149 0.214901,0.394817 v 1.794168 h -0.564738 c -0.114947,0.149931 -0.219898,0.339843 -0.269875,0.544748 h 1.614251 c 0.154929,-0.164924 0.244887,-0.329847 0.309857,-0.544748 h -0.674687 z"
         style="font-style:normal;font-variant:normal;font-weight:normal;font-stretch:normal;font-size:5.99722px;font-family:'David CLM';-inkscape-font-specification:'David CLM, Normal';font-variant-ligatures:normal;font-variant-caps:normal;font-variant-numeric:normal;font-variant-east-asian:normal"
         id="path11893" />
    </g>
    <g
       aria-label="2"
       transform="translate(73.200348,29.919182)"
       id="text4350-8"
       style="font-style:normal;font-variant:normal;font-weight:normal;font-stretch:normal;font-size:6.70278px;line-height:1.25;font-family:'David CLM';-inkscape-font-specification:'David CLM, Normal';font-variant-ligatures:normal;font-variant-caps:normal;font-variant-numeric:normal;font-variant-east-asian:normal;white-space:pre;shape-inside:url(#rect4352-1-17);fill:#000000;fill-opacity:1;stroke:none">
      <path
         d="m 37.771641,50.354022 c -0.134056,0.184327 -0.206669,0.323968 -0.268111,0.536222 0.279282,-0.05586 0.787576,-0.139641 1.11713,0.117299 0.296039,0.234597 0.290453,0.726135 -0.106128,1.105959 -0.441266,0.424509 -0.809919,0.748477 -1.011002,1.217671 -0.139642,0.335139 -0.16757,0.580908 -0.150813,0.921633 h 1.871193 c 0.139641,-0.184327 0.234597,-0.357482 0.296039,-0.608836 h -1.636595 c 0.02234,-0.284868 0.229011,-0.597665 0.418924,-0.798748 0.357481,-0.379824 0.709377,-0.575322 0.94956,-0.932804 0.262526,-0.390995 0.262526,-0.938389 -0.03351,-1.251185 -0.379824,-0.413338 -0.871361,-0.418924 -1.446683,-0.307211 z"
         id="path11896" />
    </g>
    <g
       aria-label="2"
       transform="rotate(180,75.034338,69.35203)"
       id="text4350-5-0"
       style="font-style:normal;font-variant:normal;font-weight:normal;font-stretch:normal;font-size:6.70278px;line-height:1.25;font-family:'David CLM';-inkscape-font-specification:'David CLM, Normal';font-variant-ligatures:normal;font-variant-caps:normal;font-variant-numeric:normal;font-variant-east-asian:normal;white-space:pre;shape-inside:url(#rect4352-7-3-1);fill:#000000;fill-opacity:1;stroke:none">
      <path
         d="m 37.771641,50.354022 c -0.134056,0.184327 -0.206669,0.323968 -0.268111,0.536222 0.279282,-0.05586 0.787576,-0.139641 1.11713,0.117299 0.296039,0.234597 0.290453,0.726135 -0.106128,1.105959 -0.441266,0.424509 -0.809919,0.748477 -1.011002,1.217671 -0.139642,0.335139 -0.16757,0.580908 -0.150813,0.921633 h 1.871193 c 0.139641,-0.184327 0.234597,-0.357482 0.296039,-0.608836 h -1.636595 c 0.02234,-0.284868 0.229011,-0.597665 0.418924,-0.798748 0.357481,-0.379824 0.709377,-0.575322 0.94956,-0.932804 0.262526,-0.390995 0.262526,-0.938389 -0.03351,-1.251185 -0.379824,-0.413338 -0.871361,-0.418924 -1.446683,-0.307211 z"
         id="path11899" />
    </g>
    <g
       aria-label="3"
       transform="translate(49.407298,39.519181)"
       id="text4350-8-7"
       style="font-style:normal;font-variant:normal;font-weight:normal;font-stretch:normal;font-size:6.70278px;line-height:1.25;font-family:'David CLM';-inkscape-font-specification:'David CLM, Normal';font-variant-ligatures:normal;font-variant-caps:normal;font-variant-numeric:normal;font-variant-east-asian:normal;white-space:pre;shape-inside:url(#rect4352-1-1-30);fill:#000000;fill-opacity:1;stroke:none">
      <path
         d="m 37.928039,50.326094 c -0.134056,0.150812 -0.234597,0.307211 -0.312796,0.530637 0.525051,-0.01676 1.133887,0 1.2065,0.497122 0.05027,0.307211 -0.368653,0.597665 -0.748477,0.687035 -0.07261,0.139642 -0.100542,0.273697 -0.08937,0.42451 0.625592,0 1.228842,0.09496 1.195329,0.659106 -0.02234,0.485952 -0.435681,0.597665 -0.776406,0.614422 -0.279282,0.01676 -0.592079,-0.12847 -0.703792,-0.184327 -0.156398,0.150813 -0.284868,0.323968 -0.374238,0.541808 0.229012,0.12847 0.592079,0.240183 0.871361,0.223426 0.480366,-0.02234 0.815505,-0.229011 1.122716,-0.620007 0.290454,-0.363067 0.363067,-0.815505 0.268111,-1.145058 -0.09496,-0.340725 -0.458023,-0.530637 -0.709377,-0.558565 0.195497,-0.161984 0.323967,-0.318382 0.413338,-0.547394 0.100541,-0.256939 0.04469,-0.653521 -0.150813,-0.865775 -0.307211,-0.335139 -0.798748,-0.329554 -1.212086,-0.25694 z"
         id="path11902" />
    </g>
    <g
       aria-label="3"
       transform="rotate(180,63.179179,74.15203)"
       id="text4350-5-0-3"
       style="font-style:normal;font-variant:normal;font-weight:normal;font-stretch:normal;font-size:6.70278px;line-height:1.25;font-family:'David CLM';-inkscape-font-specification:'David CLM, Normal';font-variant-ligatures:normal;font-variant-caps:normal;font-variant-numeric:normal;font-variant-east-asian:normal;white-space:pre;shape-inside:url(#rect4352-7-3-3-8);fill:#000000;fill-opacity:1;stroke:none">
      <path
         d="m 37.928039,50.326094 c -0.134056,0.150812 -0.234597,0.307211 -0.312796,0.530637 0.525051,-0.01676 1.133887,0 1.2065,0.497122 0.05027,0.307211 -0.368653,0.597665 -0.748477,0.687035 -0.07261,0.139642 -0.100542,0.273697 -0.08937,0.42451 0.625592,0 1.228842,0.09496 1.195329,0.659106 -0.02234,0.485952 -0.435681,0.597665 -0.776406,0.614422 -0.279282,0.01676 -0.592079,-0.12847 -0.703792,-0.184327 -0.156398,0.150813 -0.284868,0.323968 -0.374238,0.541808 0.229012,0.12847 0.592079,0.240183 0.871361,0.223426 0.480366,-0.02234 0.815505,-0.229011 1.122716,-0.620007 0.290454,-0.363067 0.363067,-0.815505 0.268111,-1.145058 -0.09496,-0.340725 -0.458023,-0.530637 -0.709377,-0.558565 0.195497,-0.161984 0.323967,-0.318382 0.413338,-0.547394 0.100541,-0.256939 0.04469,-0.653521 -0.150813,-0.865775 -0.307211,-0.335139 -0.798748,-0.329554 -1.212086,-0.25694 z"
         id="path11905" />
    </g>
    <g
       aria-label="+"
       transform="translate(72.695601,39.519181)"
       id="text4350-8-7-8"
       style="font-style:normal;font-variant:normal;font-weight:normal;font-stretch:normal;font-size:6.70278px;line-height:1.25;font-family:'David CLM';-inkscape-font-specification:'David CLM, Normal';font-variant-ligatures:normal;font-variant-caps:normal;font-variant-numeric:normal;font-variant-east-asian:normal;white-space:pre;shape-inside:url(#rect4352-1-1-3-2);fill:#000000;fill-opacity:1;stroke:none">
      <path
         d="m 39.205386,51.37753 v 1.173399 h 1.16892 v 0.528477 h -1.16892 v 1.1734 h -0.532957 v -1.1734 h -1.16892 v -0.528477 h 1.16892 V 51.37753 Z"
         style="font-style:normal;font-variant:normal;font-weight:bold;font-stretch:normal;font-size:4.58611px;font-family:sans-serif;-inkscape-font-specification:'sans-serif, Bold';font-variant-ligatures:normal;font-variant-caps:normal;font-variant-numeric:normal;font-variant-east-asian:normal"
         id="path11908" />
    </g>
    <g
       aria-label="+"
       transform="matrix(1,0,0,-1,72.702949,148.30406)"
       id="text4350-5-0-3-6"
       style="font-style:normal;font-variant:normal;font-weight:normal;font-stretch:normal;font-size:6.70278px;line-height:1.25;font-family:'David CLM';-inkscape-font-specification:'David CLM, Normal';font-variant-ligatures:normal;font-variant-caps:normal;font-variant-numeric:normal;font-variant-east-asian:normal;white-space:pre;shape-inside:url(#rect4352-7-3-3-2-90);fill:#000000;fill-opacity:1;stroke:none">
      <path
         d="m 39.205386,51.37753 v 1.173399 h 1.16892 v 0.528477 h -1.16892 v 1.1734 h -0.532957 v -1.1734 h -1.16892 v -0.528477 h 1.16892 V 51.37753 Z"
         style="font-style:normal;font-variant:normal;font-weight:bold;font-stretch:normal;font-size:4.58611px;font-family:sans-serif;-inkscape-font-specification:'sans-serif, Bold';font-variant-ligatures:normal;font-variant-caps:normal;font-variant-numeric:normal;font-variant-east-asian:normal"
         id="path11911" />
    </g>
    <g
       aria-label="·"
       transform="translate(49.467827,49.119185)"
       id="text4350-8-7-1"
       style="font-style:normal;font-variant:normal;font-weight:normal;font-stretch:normal;font-size:6.70278px;line-height:1.25;font-family:'David CLM';-inkscape-font-specification:'David CLM, Normal';font-variant-ligatures:normal;font-variant-caps:normal;font-variant-numeric:normal;font-variant-east-asian:normal;white-space:pre;shape-inside:url(#rect4352-1-1-6-1);fill:#000000;fill-opacity:1;stroke:none">
      <path
         d="m 37.960673,52.247136 h 0.908643 v 1.093817 h -0.908643 z"
         style="font-style:normal;font-variant:normal;font-weight:normal;font-stretch:normal;font-size:8.81944px;font-family:'David CLM';-inkscape-font-specification:'David CLM, Normal';font-variant-ligatures:normal;font-variant-caps:normal;font-variant-numeric:normal;font-variant-east-asian:normal"
         id="path11914" />
    </g>
    <g
       aria-label="·"
       transform="matrix(1,0,0,-1,49.475175,157.90406)"
       id="text4350-5-0-3-9"
       style="font-style:normal;font-variant:normal;font-weight:normal;font-stretch:normal;font-size:6.70278px;line-height:1.25;font-family:'David CLM';-inkscape-font-specification:'David CLM, Normal';font-variant-ligatures:normal;font-variant-caps:normal;font-variant-numeric:normal;font-variant-east-asian:normal;white-space:pre;shape-inside:url(#rect4352-7-3-3-0-0);fill:#000000;fill-opacity:1;stroke:none">
      <path
         d="m 37.960673,52.247136 h 0.908643 v 1.093817 h -0.908643 z"
         style="font-style:normal;font-variant:normal;font-weight:normal;font-stretch:normal;font-size:8.81944px;font-family:'David CLM';-inkscape-font-specification:'David CLM, Normal';font-variant-ligatures:normal;font-variant-caps:normal;font-variant-numeric:normal;font-variant-east-asian:normal"
         id="path11917" />
    </g>
    <g
       aria-label="⊕"
       transform="translate(71.808832,49.119183)"
       id="text4350-8-7-8-9"
       style="font-style:normal;font-variant:normal;font-weight:normal;font-stretch:normal;font-size:6.70278px;line-height:1.25;font-family:'David CLM';-inkscape-font-specification:'David CLM, Normal';font-variant-ligatures:normal;font-variant-caps:normal;font-variant-numeric:normal;font-variant-east-asian:normal;white-space:pre;shape-inside:url(#rect4352-1-1-3-0-8);fill:#000000;fill-opacity:1;stroke:none">
      <path
         d="m 40.480245,50.564313 q -0.304375,-0.127641 -0.654569,-0.127641 -0.350194,0 -0.654568,0.127641 -0.301101,0.127641 -0.549837,0.376377 -0.252009,0.252009 -0.376377,0.55311 -0.124368,0.301102 -0.124368,0.657841 0,0.346922 0.124368,0.648023 0.124368,0.301101 0.376377,0.55311 0.248736,0.248736 0.549837,0.376377 0.304374,0.127641 0.654568,0.127641 0.350194,0 0.654569,-0.127641 0.301101,-0.127641 0.549837,-0.376377 0.252009,-0.252009 0.376377,-0.55311 0.124368,-0.301101 0.124368,-0.648023 0,-0.356739 -0.124368,-0.657841 -0.124368,-0.301101 -0.376377,-0.55311 -0.248736,-0.248736 -0.549837,-0.376377 z m -1.495689,-0.454925 q 0.389468,-0.163642 0.84112,-0.163642 0.451652,0 0.841121,0.163642 0.389468,0.163642 0.710206,0.484381 0.324012,0.324011 0.484381,0.713479 0.160369,0.386195 0.160369,0.844393 0,0.44838 -0.160369,0.837848 -0.160369,0.386195 -0.484381,0.710206 -0.320738,0.320739 -0.710206,0.484381 -0.389469,0.163642 -0.841121,0.163642 -0.451652,0 -0.84112,-0.163642 -0.389468,-0.163642 -0.710207,-0.484381 -0.324011,-0.324011 -0.48438,-0.710206 -0.160369,-0.389468 -0.160369,-0.837848 0,-0.458198 0.160369,-0.844393 0.160369,-0.389468 0.48438,-0.713479 0.320739,-0.320739 0.710207,-0.484381 z m 1.119312,0.595657 v 1.168405 h 1.165131 v 0.556383 h -1.165131 v 1.168404 H 39.547485 V 52.429833 H 38.382353 V 51.87345 h 1.165132 v -1.168405 z"
         style="font-style:normal;font-variant:normal;font-weight:normal;font-stretch:normal;font-size:6.70278px;font-family:sans-serif;-inkscape-font-specification:'sans-serif, Normal';font-variant-ligatures:normal;font-variant-caps:normal;font-variant-numeric:normal;font-variant-east-asian:normal"
         id="path11920" />
    </g>
    <g
       aria-label="⊕"
       transform="matrix(1,0,0,-1,71.81618,157.90406)"
       id="text4350-5-0-3-6-6"
       style="font-style:normal;font-variant:normal;font-weight:normal;font-stretch:normal;font-size:6.70278px;line-height:1.25;font-family:'David CLM';-inkscape-font-specification:'David CLM, Normal';font-variant-ligatures:normal;font-variant-caps:normal;font-variant-numeric:normal;font-variant-east-asian:normal;white-space:pre;shape-inside:url(#rect4352-7-3-3-2-9-1);fill:#000000;fill-opacity:1;stroke:none">
      <path
         d="m 40.480245,50.564313 q -0.304375,-0.127641 -0.654569,-0.127641 -0.350194,0 -0.654568,0.127641 -0.301101,0.127641 -0.549837,0.376377 -0.252009,0.252009 -0.376377,0.55311 -0.124368,0.301102 -0.124368,0.657841 0,0.346922 0.124368,0.648023 0.124368,0.301101 0.376377,0.55311 0.248736,0.248736 0.549837,0.376377 0.304374,0.127641 0.654568,0.127641 0.350194,0 0.654569,-0.127641 0.301101,-0.127641 0.549837,-0.376377 0.252009,-0.252009 0.376377,-0.55311 0.124368,-0.301101 0.124368,-0.648023 0,-0.356739 -0.124368,-0.657841 -0.124368,-0.301101 -0.376377,-0.55311 -0.248736,-0.248736 -0.549837,-0.376377 z m -1.495689,-0.454925 q 0.389468,-0.163642 0.84112,-0.163642 0.451652,0 0.841121,0.163642 0.389468,0.163642 0.710206,0.484381 0.324012,0.324011 0.484381,0.713479 0.160369,0.386195 0.160369,0.844393 0,0.44838 -0.160369,0.837848 -0.160369,0.386195 -0.484381,0.710206 -0.320738,0.320739 -0.710206,0.484381 -0.389469,0.163642 -0.841121,0.163642 -0.451652,0 -0.84112,-0.163642 -0.389468,-0.163642 -0.710207,-0.484381 -0.324011,-0.324011 -0.48438,-0.710206 -0.160369,-0.389468 -0.160369,-0.837848 0,-0.458198 0.160369,-0.844393 0.160369,-0.389468 0.48438,-0.713479 0.320739,-0.320739 0.710207,-0.484381 z m 1.119312,0.595657 v 1.168405 h 1.165131 v 0.556383 h -1.165131 v 1.168404 H 39.547485 V 52.429833 H 38.382353 V 51.87345 h 1.165132 v -1.168405 z"
         id="path11923" />
    </g>
    <g
       aria-label="0"
       id="text4824"
       style="font-style:normal;font-weight:normal;font-size:10.5833px;line-height:1.25;font-family:sans-serif;fill:#000000;fill-opacity:1;stroke:none;stroke-width:0.264583">
      <path
         d="m 93.670366,113.59002 c 0.290454,-0.10055 0.608836,-0.067 0.837847,0.15081 0.279283,0.26252 0.402167,0.75406 0.418924,1.27911 0.01117,0.48037 -0.01117,0.9719 -0.268111,1.31822 -0.156398,0.21784 -0.491537,0.35189 -0.821091,-0.006 -0.268111,-0.29045 -0.441266,-0.92163 -0.441266,-1.53605 0,-0.48037 0.02234,-0.79317 0.273697,-1.2065 z m 0.21784,-0.5865 c -0.636764,0.45244 -0.888118,1.07245 -0.960732,1.74272 -0.07261,0.69263 0.04469,1.40759 0.301626,1.78183 0.21784,0.33514 0.620007,0.51388 0.888118,0.51388 0.502708,0 0.938389,-0.50271 1.139472,-1.06686 0.251355,-0.70379 0.184327,-1.45786 0.09496,-1.91588 -0.156398,-0.82668 -0.714963,-1.17299 -1.46344,-1.05569 z"
         style="font-style:normal;font-variant:normal;font-weight:normal;font-stretch:normal;font-size:6.70278px;font-family:'David CLM';-inkscape-font-specification:'David CLM, Normal';font-variant-ligatures:normal;font-variant-caps:normal;font-variant-numeric:normal;font-variant-east-asian:normal;stroke-width:0.264583"
         id="path11926" />
    </g>
    <path
       d="m 111.83521,151.3834 q -0.20216,-0.1164 -0.20216,-0.49011 0,-0.21442 0.0796,-0.41658 0.0858,-0.20217 0.20829,-0.20217 0.0429,0 0.0551,0.0184 0.0123,0.0184 0.006,0.0674 -0.006,0.0429 -0.006,0.0735 0.0184,0.10415 0.12252,0.12253 l 0.36146,0.0613 q 0.15928,0.0245 0.23892,0.14703 0.0858,0.1164 0.0919,0.28181 0.006,0.15928 -0.0184,0.30019 -0.0184,0.1409 -0.0551,0.2573 -0.0674,0.2083 -0.27568,0.53299 -0.20217,0.31857 -0.25731,0.41659 -0.11027,0.21442 -0.38595,0.75353 -0.26956,0.53911 -0.41046,0.80254 -0.049,0.0796 -0.0858,0.10415 -0.0368,0.0184 -0.12865,0.0184 h -1.47031 q -0.0674,0 -0.10415,-0.0184 -0.0306,-0.0245 -0.049,-0.10415 -0.0613,-0.26343 -0.13478,-0.58199 -0.0674,-0.31857 -0.0919,-0.42884 -0.0245,-0.1164 -0.0551,-0.26956 -0.0306,-0.15316 -0.0429,-0.23893 -0.0122,-0.0858 -0.0245,-0.19604 -0.049,-0.42884 0.18379,-0.84542 0.0674,-0.13478 -0.0551,-0.15929 -0.0122,0 -0.0551,0 -0.0429,-0.006 -0.0796,-0.0122 -0.0368,-0.0122 -0.0735,-0.0368 -0.17153,-0.12252 -0.17153,-0.44722 0,-0.21442 0.0858,-0.41658 0.0858,-0.20217 0.20216,-0.20217 0.0429,0 0.0551,0.0184 0.0123,0.0184 0.006,0.0674 -0.006,0.0429 -0.006,0.0735 0.0245,0.12253 0.12253,0.12865 l 0.32469,0.0306 q 0.15316,0.0184 0.23893,0.10414 0.0858,0.0796 0.1409,0.23893 0.0306,0.0919 0.0306,0.27568 0.006,0.18379 -0.0245,0.29406 -0.0184,0.0613 -0.0735,0.0551 -0.0551,-0.0123 -0.1164,-0.0368 -0.0613,-0.0306 -0.1409,0.0245 -0.0796,0.0613 -0.13478,0.33082 -0.0551,0.26343 -0.0122,0.56361 0.12865,0.98633 0.47172,0.91895 0.0858,-0.5575 0.15928,-0.79642 0.0551,-0.19604 0.21443,-0.47172 0.15928,-0.28181 0.18991,-0.38596 0.0613,-0.19604 0.0429,-0.23893 -0.0245,-0.0551 -0.12253,-0.0674 -0.0919,-0.0184 -0.1409,-0.0429 -0.18991,-0.11027 -0.18991,-0.4656 0,-0.21442 0.0796,-0.41658 0.0858,-0.20217 0.2083,-0.20217 0.0429,0 0.0551,0.0184 0.0122,0.0184 0.006,0.0674 -0.006,0.0429 -0.006,0.0735 0.006,0.049 0.0429,0.0858 0.0429,0.0368 0.0796,0.0368 l 0.32469,0.0306 q 0.31244,0.0306 0.38596,0.31244 0.0919,0.3492 -0.0245,0.61263 -0.0245,0.0551 -0.0674,0.049 -0.0429,-0.0123 -0.098,-0.0368 -0.0551,-0.0306 -0.14091,0.0122 -0.0551,0.0245 -0.0919,0.14091 -0.0306,0.0858 -0.0919,0.3492 -0.0551,0.2573 -0.11027,0.40433 -0.0429,0.12253 -0.13478,0.29406 -0.0919,0.16541 -0.15316,0.31244 -0.0551,0.14703 -0.0735,0.3247 h 0.50848 q 0.15929,0 0.22668,-0.0551 0.0735,-0.0551 0.15315,-0.19604 0.42272,-0.6984 0.9312,-1.35391 0.10414,-0.12865 0,-0.2573 -0.0613,-0.0797 -0.2328,-0.0797 -0.16541,-0.006 -0.21442,-0.0367 z"
       style="font-style:normal;font-variant:normal;font-weight:normal;font-stretch:normal;font-size:7.35154px;line-height:1.25;font-family:'Frank Ruehl CLM';-inkscape-font-specification:'Frank Ruehl CLM, Normal';font-variant-ligatures:normal;font-variant-caps:normal;font-variant-numeric:normal;font-variant-east-asian:normal;fill:#000000;fill-opacity:1;stroke:none;stroke-width:0.183789"
       id="path9545-0" />
    <path
       d="m 105.74243,147.61794 q 0.006,0.098 -0.0368,0.17153 -0.0429,0.0735 -0.10415,0.11028 -0.0613,0.0306 -0.12865,0.0429 -0.0674,0.0184 -0.12252,0.006 -0.049,-0.0123 -0.0613,-0.0368 -0.0184,-0.0306 -0.0184,-0.18379 0,-0.77191 0.15315,-1.29877 0.15316,-0.53299 0.48398,-0.99246 0.049,-0.0674 0.0184,-0.13478 -0.0245,-0.0735 -0.098,-0.0919 -0.0796,-0.0184 -0.18379,-0.0245 -0.098,-0.006 -0.17154,-0.0245 -0.0735,-0.0184 -0.15315,-0.0796 -0.18379,-0.14704 -0.18379,-0.50849 0,-0.22054 0.0796,-0.41658 0.0858,-0.20217 0.20829,-0.20217 0.0429,0 0.049,0.0184 0.0122,0.0184 0.006,0.0674 -0.006,0.0429 0,0.0735 0.006,0.049 0.0429,0.0858 0.0368,0.0368 0.0735,0.0368 h 0.12865 q 0.45335,0 0.55137,0.39208 0.0613,0.2328 -0.0122,0.50236 0.28181,-0.14091 0.42884,-0.3492 0.14703,-0.2083 0.25118,-0.49623 0.0306,-0.0796 0.0674,-0.0919 0.0429,-0.0122 0.1164,0.006 0.30018,0.0551 0.52073,0.22667 0.22055,0.16541 0.34307,0.42272 0.12253,0.25117 0.17766,0.53911 0.0551,0.28793 0.0551,0.63101 0,0.94344 -0.22054,1.77049 -0.0184,0.0735 -0.0551,0.098 -0.0306,0.0245 -0.10415,0.0245 h -1.51932 q -0.098,0 -0.1164,-0.0368 -0.0184,-0.0429 0.006,-0.1164 l 0.16541,-0.63713 q 0.0123,-0.049 0.0368,-0.0613 0.0245,-0.0184 0.0919,-0.0184 h 1.02309 q 0.0858,0 0.13478,-0.0306 0.0551,-0.0306 0.1164,-0.12252 0.0735,-0.11027 0.098,-0.37983 0.0245,-0.27568 -0.0429,-0.6065 -0.0796,-0.31857 -0.30631,-0.50848 -0.22668,-0.19605 -0.55137,-0.19605 -0.58812,0 -0.94345,0.66164 -0.35532,0.65552 -0.29406,1.75825 z"
       style="font-style:normal;font-variant:normal;font-weight:normal;font-stretch:normal;font-size:7.35154px;line-height:1.25;font-family:'Frank Ruehl CLM';-inkscape-font-specification:'Frank Ruehl CLM, Normal';font-variant-ligatures:normal;font-variant-caps:normal;font-variant-numeric:normal;font-variant-east-asian:normal;fill:#000000;fill-opacity:1;stroke:none;stroke-width:0.183789"
       id="path9547-1" />
    <path
       d="m 102.87813,147.34186 h 0.3247 q 0.40433,0 0.53911,0.20829 0.14091,0.20217 0.14091,0.60038 0,0.2573 0.006,0.78416 0.006,0.52686 0,0.90669 0,0.37983 -0.0122,0.74128 -0.006,0.22055 -0.1164,0.3492 -0.11028,0.12253 -0.22055,0.12253 -0.0306,0 -0.0551,-0.0245 -0.0184,-0.0184 -0.0184,-0.049 0,-0.42271 0,-1.18237 0,-0.76579 0,-1.00471 0,-0.14091 -0.006,-0.2083 0,-0.0674 -0.0306,-0.15315 -0.0245,-0.0858 -0.0796,-0.12253 -0.049,-0.0429 -0.14703,-0.0674 -0.098,-0.0306 -0.24505,-0.0306 h -0.0306 q -0.26343,0 -0.39208,-0.12865 -0.12253,-0.13478 -0.12253,-0.41046 0,-0.22055 0.0858,-0.41659 0.0858,-0.19604 0.20217,-0.19604 0.049,0 0.0551,0.0184 0.0123,0.0184 0.006,0.0735 -0.006,0.049 -0.006,0.0735 0.0123,0.049 0.049,0.0858 0.0368,0.0306 0.0735,0.0306 z"
       style="font-style:normal;font-variant:normal;font-weight:normal;font-stretch:normal;font-size:7.35154px;line-height:1.25;font-family:'Frank Ruehl CLM';-inkscape-font-specification:'Frank Ruehl CLM, Normal';font-variant-ligatures:normal;font-variant-caps:normal;font-variant-numeric:normal;font-variant-east-asian:normal;fill:#000000;fill-opacity:1;stroke:none;stroke-width:0.183789"
       id="path9549-7" />
    <path
       d="m 94.388313,144.66728 h 0.410461 q 0.496229,0 0.508482,0.56362 0,0.0919 -0.04901,0.41046 -0.08577,0.53298 -0.08577,0.78416 0,0.23893 0.0919,0.62488 0.09802,0.37983 0.110273,0.52686 0.0245,0.35533 -0.06739,0.63714 -0.01838,0.049 -0.03063,0.0735 -0.01225,0.0184 -0.05514,0.0368 -0.04288,0.0184 -0.1164,0.0184 h -1.464182 q -0.09802,0 -0.1164,-0.0368 -0.01838,-0.0429 0.0061,-0.1164 l 0.16541,-0.63713 q 0.01225,-0.049 0.03676,-0.0613 0.02451,-0.0184 0.09189,-0.0184 h 0.759659 q 0.177662,0 0.226673,-0.2083 0.01838,-0.0858 0.01838,-0.21442 0,-0.12865 -0.01225,-0.31244 -0.0061,-0.18991 -0.0061,-0.30019 0,-0.23892 0.02451,-0.44109 0.0245,-0.20829 0.01225,-0.28181 -0.02451,-0.17766 -0.251177,-0.17766 h -0.159284 q -0.26343,0 -0.392082,-0.12865 -0.122525,-0.12865 -0.122525,-0.40434 0,-0.21442 0.07964,-0.41658 0.08577,-0.20217 0.208294,-0.20217 0.04288,0 0.04901,0.0184 0.01225,0.0184 0.0061,0.0674 -0.0061,0.0429 0,0.0735 0.0061,0.049 0.04288,0.0858 0.03676,0.0368 0.07964,0.0368 z"
       style="font-style:normal;font-variant:normal;font-weight:normal;font-stretch:normal;font-size:7.35154px;line-height:1.25;font-family:'Frank Ruehl CLM';-inkscape-font-specification:'Frank Ruehl CLM, Normal';font-variant-ligatures:normal;font-variant-caps:normal;font-variant-numeric:normal;font-variant-east-asian:normal;fill:#000000;fill-opacity:1;stroke:none;stroke-width:0.183789"
       id="path9551-7" />
    <path
       d="m 87.761121,141.97917 h 2.205462 q 0.189914,0 0.196041,0.24505 v 0.51461 q 0,0.0858 -0.01838,0.1164 -0.01225,0.0306 -0.03676,0.0306 -0.01838,-0.006 -0.06126,0.0306 -0.03676,0.0306 -0.07352,0.1164 -0.06126,0.11027 -0.05514,0.39821 0.0061,0.28793 0.04288,0.55136 0.03676,0.25731 0.07352,0.56362 0.03676,0.30631 0.03063,0.45335 -0.01838,0.34919 -0.189915,0.52073 -0.09802,0.098 -0.232798,0.13478 -0.134779,0.0429 -0.171536,-0.0245 -0.01225,-0.0245 -0.01838,-0.0368 0,-0.0123 0.0061,-0.0245 0.0061,-0.0184 0.01838,-0.0674 0.01225,-0.0551 0.01838,-0.13478 0.01225,-0.0796 0.01838,-0.25117 0.0061,-0.17154 0.01225,-0.39209 0,-0.0429 -0.01838,-0.25117 -0.01225,-0.21442 -0.01838,-0.4411 0,-0.22667 0.03063,-0.71677 0.0061,-0.11028 0.04288,-0.18992 0.03676,-0.0796 0.07352,-0.1164 0.04288,-0.0368 0.07352,-0.0613 0.03063,-0.0306 0.03063,-0.049 -0.0061,-0.0245 -0.02451,-0.0368 -0.01225,-0.0122 -0.0245,-0.0122 -0.01225,-0.006 -0.04288,0 -0.03063,0 -0.03676,0 h -1.795001 q -0.269556,0 -0.398208,-0.12865 -0.122526,-0.13478 -0.122526,-0.41046 0,-0.22055 0.08577,-0.41659 0.08577,-0.19604 0.202167,-0.19604 0.04901,0 0.05514,0.0184 0.01225,0.0184 0.0061,0.0735 -0.0061,0.049 0,0.0735 0.0061,0.049 0.04288,0.0858 0.03676,0.0306 0.07352,0.0306 z m 0.140904,1.6786 q 0.06739,0 0.05514,0.0613 -0.05514,0.17766 -0.03676,0.88831 0.02451,0.70453 -0.07964,0.8148 -0.07352,0.1164 -0.232799,0.18379 -0.153157,0.0674 -0.226672,0.0613 -0.06739,-0.006 -0.04901,-0.0735 0.04901,-0.18379 0.04288,-0.74741 0,-0.0306 0,-0.098 0,-0.19604 0,-0.36758 0,-0.17153 0.0245,-0.31857 0.02451,-0.14703 0.07964,-0.21442 0.140904,-0.18991 0.422713,-0.18991 z"
       style="font-style:normal;font-variant:normal;font-weight:normal;font-stretch:normal;font-size:7.35154px;line-height:1.25;font-family:'Frank Ruehl CLM';-inkscape-font-specification:'Frank Ruehl CLM, Normal';font-variant-ligatures:normal;font-variant-caps:normal;font-variant-numeric:normal;font-variant-east-asian:normal;fill:#000000;fill-opacity:1;stroke:none;stroke-width:0.183789"
       id="path9553-8" />
    <path
       d="m 87.415872,168.63138 q 0.202167,0.1164 0.202167,0.49011 0,0.21442 -0.07964,0.41658 -0.08577,0.20217 -0.208293,0.20217 -0.04288,0 -0.05514,-0.0184 -0.01225,-0.0184 -0.0061,-0.0674 0.0061,-0.0429 0.0061,-0.0735 -0.01838,-0.10415 -0.122525,-0.12253 l -0.361451,-0.0613 q -0.159284,-0.0245 -0.238925,-0.14703 -0.08577,-0.1164 -0.09189,-0.28181 -0.0061,-0.15928 0.01838,-0.30019 0.01838,-0.1409 0.05514,-0.2573 0.06739,-0.2083 0.275683,-0.53299 0.202167,-0.31857 0.257304,-0.41659 0.110273,-0.21442 0.385955,-0.75353 0.269557,-0.53911 0.410461,-0.80254 0.04901,-0.0796 0.08577,-0.10415 0.03676,-0.0184 0.128652,-0.0184 h 1.470308 q 0.06739,0 0.104147,0.0184 0.03063,0.0245 0.04901,0.10415 0.06126,0.26343 0.134779,0.58199 0.06739,0.31857 0.09189,0.42884 0.0245,0.1164 0.05514,0.26956 0.03063,0.15316 0.04288,0.23893 0.01225,0.0858 0.02451,0.19604 0.04901,0.42884 -0.183789,0.84542 -0.06739,0.13478 0.05514,0.15929 0.01225,0 0.05514,0 0.04288,0.006 0.07964,0.0122 0.03676,0.0122 0.07352,0.0368 0.171536,0.12252 0.171536,0.44722 0,0.21442 -0.08577,0.41658 -0.08577,0.20217 -0.202167,0.20217 -0.04288,0 -0.05514,-0.0184 -0.01225,-0.0184 -0.0061,-0.0674 0.0061,-0.0429 0.0061,-0.0735 -0.0245,-0.12253 -0.122525,-0.12865 l -0.324693,-0.0306 q -0.153157,-0.0184 -0.238925,-0.10414 -0.08577,-0.0796 -0.140905,-0.23893 -0.03063,-0.0919 -0.03063,-0.27568 -0.0061,-0.18379 0.02451,-0.29406 0.01838,-0.0613 0.07352,-0.0551 0.05514,0.0123 0.1164,0.0368 0.06126,0.0306 0.140904,-0.0245 0.07964,-0.0613 0.134778,-0.33082 0.05514,-0.26343 0.01225,-0.56361 -0.128652,-0.98633 -0.471724,-0.91895 -0.08577,0.5575 -0.159283,0.79642 -0.05514,0.19604 -0.21442,0.47172 -0.159284,0.28181 -0.189915,0.38596 -0.06126,0.19604 -0.04288,0.23893 0.02451,0.0551 0.122526,0.0674 0.09189,0.0184 0.140904,0.0429 0.189915,0.11027 0.189915,0.4656 0,0.21442 -0.07964,0.41658 -0.08577,0.20217 -0.208293,0.20217 -0.04288,0 -0.05514,-0.0184 -0.01225,-0.0184 -0.0061,-0.0674 0.0061,-0.0429 0.0061,-0.0735 -0.0061,-0.049 -0.04288,-0.0858 -0.04288,-0.0368 -0.07964,-0.0368 l -0.324693,-0.0306 q -0.31244,-0.0306 -0.385955,-0.31244 -0.09189,-0.3492 0.02451,-0.61263 0.0245,-0.0551 0.06739,-0.049 0.04288,0.0123 0.09802,0.0368 0.05514,0.0306 0.140905,-0.0122 0.05514,-0.0245 0.09189,-0.14091 0.03063,-0.0858 0.09189,-0.3492 0.05514,-0.2573 0.110273,-0.40433 0.04288,-0.12253 0.134779,-0.29406 0.09189,-0.16541 0.153157,-0.31244 0.05514,-0.14703 0.07351,-0.3247 h -0.508481 q -0.159284,0 -0.226673,0.0551 -0.07352,0.0551 -0.153157,0.19604 -0.422713,0.6984 -0.931195,1.35391 -0.104147,0.12865 0,0.2573 0.06126,0.0797 0.232799,0.0797 0.165409,0.006 0.21442,0.0367 z"
       style="font-style:normal;font-variant:normal;font-weight:normal;font-stretch:normal;font-size:7.35154px;line-height:1.25;font-family:'Frank Ruehl CLM';-inkscape-font-specification:'Frank Ruehl CLM, Normal';font-variant-ligatures:normal;font-variant-caps:normal;font-variant-numeric:normal;font-variant-east-asian:normal;fill:#000000;fill-opacity:1;stroke:none;stroke-width:0.183789"
       id="path9545-7" />
    <path
       d="m 94.630307,171.12579 q -0.0061,-0.098 0.03676,-0.17153 0.04288,-0.0735 0.104147,-0.11028 0.06126,-0.0306 0.128652,-0.0429 0.06739,-0.0184 0.122526,-0.006 0.04901,0.0123 0.06126,0.0368 0.01838,0.0306 0.01838,0.18379 0,0.77191 -0.153157,1.29877 -0.153157,0.53299 -0.483976,0.99246 -0.04901,0.0674 -0.01838,0.13478 0.02451,0.0735 0.09802,0.0919 0.07964,0.0184 0.183789,0.0245 0.09802,0.006 0.171536,0.0245 0.07351,0.0184 0.153157,0.0796 0.183788,0.14704 0.183788,0.50849 0,0.22054 -0.07964,0.41658 -0.08577,0.20217 -0.208294,0.20217 -0.04288,0 -0.04901,-0.0184 -0.01225,-0.0184 -0.0061,-0.0674 0.0061,-0.0429 0,-0.0735 -0.0061,-0.049 -0.04288,-0.0858 -0.03676,-0.0368 -0.07352,-0.0368 h -0.128652 q -0.453345,0 -0.551365,-0.39208 -0.06126,-0.2328 0.01225,-0.50236 -0.281809,0.14091 -0.42884,0.3492 -0.14703,0.2083 -0.251177,0.49623 -0.03063,0.0796 -0.06739,0.0919 -0.04288,0.0122 -0.1164,-0.006 -0.300188,-0.0551 -0.520734,-0.22667 -0.220546,-0.16541 -0.343072,-0.42272 -0.122525,-0.25117 -0.177662,-0.53911 -0.05514,-0.28793 -0.05514,-0.63101 0,-0.94344 0.220546,-1.77049 0.01838,-0.0735 0.05514,-0.098 0.03063,-0.0245 0.104147,-0.0245 h 1.519318 q 0.09802,0 0.1164,0.0368 0.01838,0.0429 -0.0061,0.1164 l -0.16541,0.63713 q -0.01225,0.049 -0.03676,0.0613 -0.0245,0.0184 -0.09189,0.0184 h -1.023089 q -0.08577,0 -0.134779,0.0306 -0.05514,0.0306 -0.116399,0.12252 -0.07352,0.11027 -0.09802,0.37983 -0.0245,0.27568 0.04288,0.6065 0.07964,0.31857 0.306315,0.50848 0.226672,0.19605 0.551365,0.19605 0.588123,0 0.943448,-0.66164 0.355324,-0.65552 0.294061,-1.75825 z"
       style="font-style:normal;font-variant:normal;font-weight:normal;font-stretch:normal;font-size:7.35154px;line-height:1.25;font-family:'Frank Ruehl CLM';-inkscape-font-specification:'Frank Ruehl CLM, Normal';font-variant-ligatures:normal;font-variant-caps:normal;font-variant-numeric:normal;font-variant-east-asian:normal;fill:#000000;fill-opacity:1;stroke:none;stroke-width:0.183789"
       id="path9547-2" />
    <path
       d="M 100.16449,168.79764 H 99.8398 q -0.404335,0 -0.539113,-0.20829 -0.140905,-0.20217 -0.140905,-0.60038 0,-0.2573 -0.0061,-0.78416 -0.0061,-0.52686 0,-0.90669 0,-0.37983 0.01225,-0.74128 0.0061,-0.22055 0.116399,-0.3492 0.110273,-0.12253 0.220546,-0.12253 0.03063,0 0.05514,0.0245 0.01838,0.0184 0.01838,0.049 0,0.42271 0,1.18237 0,0.76579 0,1.00471 0,0.14091 0.0061,0.2083 0,0.0674 0.03063,0.15315 0.02451,0.0858 0.07964,0.12253 0.04901,0.0429 0.147031,0.0674 0.09802,0.0306 0.245052,0.0306 h 0.0306 q 0.26343,0 0.39208,0.12865 0.12253,0.13478 0.12253,0.41046 0,0.22055 -0.0858,0.41659 -0.0858,0.19604 -0.20217,0.19604 -0.049,0 -0.0551,-0.0184 -0.0122,-0.0184 -0.006,-0.0735 0.006,-0.049 0.006,-0.0735 -0.0122,-0.049 -0.049,-0.0858 -0.0368,-0.0306 -0.0735,-0.0306 z"
       style="font-style:normal;font-variant:normal;font-weight:normal;font-stretch:normal;font-size:7.35154px;line-height:1.25;font-family:'Frank Ruehl CLM';-inkscape-font-specification:'Frank Ruehl CLM, Normal';font-variant-ligatures:normal;font-variant-caps:normal;font-variant-numeric:normal;font-variant-east-asian:normal;fill:#000000;fill-opacity:1;stroke:none;stroke-width:0.183789"
       id="path9549-5" />
    <path
       d="m 105.31471,173.22428 h -0.41046 q -0.49623,0 -0.50848,-0.56362 0,-0.0919 0.049,-0.41046 0.0858,-0.53298 0.0858,-0.78416 0,-0.23893 -0.0919,-0.62488 -0.098,-0.37983 -0.11028,-0.52686 -0.0245,-0.35533 0.0674,-0.63714 0.0184,-0.049 0.0306,-0.0735 0.0123,-0.0184 0.0551,-0.0368 0.0429,-0.0184 0.1164,-0.0184 h 1.46418 q 0.098,0 0.1164,0.0368 0.0184,0.0429 -0.006,0.1164 l -0.16541,0.63713 q -0.0123,0.049 -0.0368,0.0613 -0.0245,0.0184 -0.0919,0.0184 h -0.75965 q -0.17767,0 -0.22668,0.2083 -0.0184,0.0858 -0.0184,0.21442 0,0.12865 0.0123,0.31244 0.006,0.18991 0.006,0.30019 0,0.23892 -0.0245,0.44109 -0.0245,0.20829 -0.0122,0.28181 0.0245,0.17766 0.25118,0.17766 h 0.15928 q 0.26343,0 0.39209,0.12865 0.12252,0.12865 0.12252,0.40434 0,0.21442 -0.0796,0.41658 -0.0858,0.20217 -0.20829,0.20217 -0.0429,0 -0.049,-0.0184 -0.0122,-0.0184 -0.006,-0.0674 0.006,-0.0429 0,-0.0735 -0.006,-0.049 -0.0429,-0.0858 -0.0368,-0.0368 -0.0796,-0.0368 z"
       style="font-style:normal;font-variant:normal;font-weight:normal;font-stretch:normal;font-size:7.35154px;line-height:1.25;font-family:'Frank Ruehl CLM';-inkscape-font-specification:'Frank Ruehl CLM, Normal';font-variant-ligatures:normal;font-variant-caps:normal;font-variant-numeric:normal;font-variant-east-asian:normal;fill:#000000;fill-opacity:1;stroke:none;stroke-width:0.183789"
       id="path9551-0" />
    <path
       d="m 111.18837,179.23267 h -2.20547 q -0.18991,0 -0.19604,-0.24505 v -0.51461 q 0,-0.0858 0.0184,-0.1164 0.0123,-0.0306 0.0368,-0.0306 0.0184,0.006 0.0613,-0.0306 0.0368,-0.0306 0.0735,-0.1164 0.0613,-0.11027 0.0551,-0.39821 -0.006,-0.28793 -0.0429,-0.55136 -0.0368,-0.25731 -0.0735,-0.56362 -0.0368,-0.30631 -0.0306,-0.45335 0.0184,-0.34919 0.18992,-0.52073 0.098,-0.098 0.2328,-0.13478 0.13478,-0.0429 0.17153,0.0245 0.0122,0.0245 0.0184,0.0368 0,0.0123 -0.006,0.0245 -0.006,0.0184 -0.0184,0.0674 -0.0122,0.0551 -0.0184,0.13478 -0.0123,0.0796 -0.0184,0.25117 -0.006,0.17154 -0.0122,0.39209 0,0.0429 0.0184,0.25117 0.0123,0.21442 0.0184,0.4411 0,0.22667 -0.0306,0.71677 -0.006,0.11028 -0.0429,0.18992 -0.0368,0.0796 -0.0735,0.1164 -0.0429,0.0368 -0.0735,0.0613 -0.0306,0.0306 -0.0306,0.049 0.006,0.0245 0.0245,0.0368 0.0122,0.0122 0.0245,0.0122 0.0123,0.006 0.0429,0 0.0306,0 0.0368,0 h 1.795 q 0.26956,0 0.39821,0.12865 0.12253,0.13478 0.12253,0.41046 0,0.22055 -0.0858,0.41659 -0.0858,0.19604 -0.20217,0.19604 -0.049,0 -0.0551,-0.0184 -0.0122,-0.0184 -0.006,-0.0735 0.006,-0.049 0,-0.0735 -0.006,-0.049 -0.0429,-0.0858 -0.0368,-0.0306 -0.0735,-0.0306 z m -0.14091,-1.6786 q -0.0674,0 -0.0551,-0.0613 0.0551,-0.17766 0.0368,-0.88831 -0.0245,-0.70453 0.0796,-0.8148 0.0735,-0.1164 0.2328,-0.18379 0.15316,-0.0674 0.22667,-0.0613 0.0674,0.006 0.049,0.0735 -0.049,0.18379 -0.0429,0.74741 0,0.0306 0,0.098 0,0.19604 0,0.36758 0,0.17153 -0.0245,0.31857 -0.0245,0.14703 -0.0796,0.21442 -0.1409,0.18991 -0.42271,0.18991 z"
       style="font-style:normal;font-variant:normal;font-weight:normal;font-stretch:normal;font-size:7.35154px;line-height:1.25;font-family:'Frank Ruehl CLM';-inkscape-font-specification:'Frank Ruehl CLM, Normal';font-variant-ligatures:normal;font-variant-caps:normal;font-variant-numeric:normal;font-variant-east-asian:normal;fill:#000000;fill-opacity:1;stroke:none;stroke-width:0.183789"
       id="path9553-2" />
    <g
       aria-label="0"
       id="text4824-4"
       style="font-style:normal;font-weight:normal;font-size:10.5833px;line-height:1.25;font-family:sans-serif;fill:#000000;fill-opacity:1;stroke:none;stroke-width:0.264583">
      <path
         d="m 104.42312,113.59002 c 0.29045,-0.10055 0.60884,-0.067 0.83785,0.15081 0.27928,0.26252 0.40216,0.75406 0.41892,1.27911 0.0112,0.48037 -0.0112,0.9719 -0.26811,1.31822 -0.1564,0.21784 -0.49154,0.35189 -0.82109,-0.006 -0.26811,-0.29045 -0.44127,-0.92163 -0.44127,-1.53605 0,-0.48037 0.0223,-0.79317 0.2737,-1.2065 z m 0.21784,-0.5865 c -0.63676,0.45244 -0.88812,1.07245 -0.96073,1.74272 -0.0726,0.69263 0.0447,1.40759 0.30162,1.78183 0.21784,0.33514 0.62001,0.51388 0.88812,0.51388 0.50271,0 0.93839,-0.50271 1.13947,-1.06686 0.25136,-0.70379 0.18433,-1.45786 0.095,-1.91588 -0.1564,-0.82668 -0.71496,-1.17299 -1.46344,-1.05569 z"
         style="font-style:normal;font-variant:normal;font-weight:normal;font-stretch:normal;font-size:6.70278px;font-family:'David CLM';-inkscape-font-specification:'David CLM, Normal';font-variant-ligatures:normal;font-variant-caps:normal;font-variant-numeric:normal;font-variant-east-asian:normal;stroke-width:0.264583"
         id="path11929" />
    </g>
  </g>
</svg>
